
<?xml version="1.0" encoding="UTF-8" standalone="no"?>
<!DOCTYPE svg PUBLIC "-//W3C//DTD SVG 1.1//EN" "http://www.w3.org/Graphics/SVG/1.1/DTD/svg11.dtd">
<svg xmlns="http://www.w3.org/2000/svg" version="1.1" viewBox="0 0 826 302" width="826.0pt" height="302.0pt" xmlns:xlink="http://www.w3.org/1999/xlink">
<defs>
<path d="M 0.00 0.00 L 826.00 0.00 L 826.00 302.00 L 0.00 302.00 L 0.00 191.96 C 1.86 194.67 2.70 194.88 5.97 194.94 C 136.65 194.93 267.32 194.94 398.00 194.94 C 401.67 194.91 405.37 195.11 409.03 194.86 C 410.99 194.83 412.07 193.60 413.59 192.58 C 413.57 191.22 413.56 189.87 413.56 188.52 C 412.04 187.50 410.97 186.25 409.03 186.25 C 405.36 186.02 401.67 186.21 398.00 186.18 C 270.33 186.18 142.67 186.19 15.00 186.18 C 11.09 186.23 7.08 185.92 3.19 186.40 C 1.89 186.52 0.86 188.14 0.00 189.01 L 0.00 0.00 Z M 326.34 52.78 C 326.80 53.16 327.26 53.53 327.73 53.91 C 325.77 62.31 322.74 70.28 320.15 78.47 C 322.71 79.38 328.33 80.94 330.21 78.31 C 332.30 74.19 333.13 69.38 334.68 65.03 C 342.62 63.63 349.79 58.88 353.92 51.93 C 356.61 47.42 357.29 42.07 356.39 36.93 C 355.62 33.12 352.49 29.81 349.31 27.76 C 345.02 25.05 340.09 25.00 335.19 25.49 C 330.14 26.36 325.34 29.17 321.57 32.57 C 317.02 36.82 313.63 42.69 314.36 49.12 C 314.78 52.33 317.38 55.90 321.02 55.29 C 323.22 55.23 324.66 54.02 326.34 52.78 Z M 413.95 26.33 C 409.40 40.39 406.20 55.45 405.34 70.22 C 403.16 71.25 400.67 73.17 398.20 72.83 C 395.95 65.86 397.96 57.08 400.13 50.26 C 399.82 49.95 399.51 49.65 399.21 49.35 C 393.69 52.34 388.97 56.08 384.31 60.25 C 385.17 56.82 386.42 53.53 387.78 50.28 C 384.86 49.69 382.52 48.66 380.21 51.24 C 377.02 55.59 376.25 62.04 375.17 67.25 C 370.97 68.73 369.03 71.07 366.39 74.45 C 363.82 74.73 361.33 72.01 359.46 70.52 C 359.45 69.84 359.43 69.16 359.41 68.48 C 363.96 65.73 368.30 62.78 371.24 58.23 C 372.55 56.17 372.49 54.05 372.79 51.72 C 371.63 50.59 370.47 49.46 369.29 48.34 C 358.94 49.70 350.97 59.78 351.35 70.01 C 351.43 74.65 355.11 79.51 360.01 79.53 C 365.73 80.02 371.15 75.11 374.45 70.94 C 374.64 72.86 374.62 74.94 375.23 76.78 C 376.88 78.83 380.26 79.00 382.65 79.55 C 382.78 76.03 382.24 71.87 383.56 68.58 C 385.41 63.91 388.47 60.31 391.85 56.68 C 390.64 63.25 389.64 69.51 390.56 76.20 C 391.55 78.47 393.46 79.10 395.80 78.67 C 399.25 77.92 402.42 75.15 405.26 73.15 C 405.40 74.45 405.55 75.74 405.69 77.04 C 407.55 78.04 409.42 79.02 411.32 79.96 C 411.70 75.97 411.73 71.16 413.64 67.58 C 416.30 62.55 419.37 57.81 423.53 53.88 C 421.77 60.12 419.41 66.41 419.91 73.02 C 420.20 75.23 420.62 77.96 423.17 78.58 C 426.96 79.52 430.70 76.57 433.84 74.82 C 435.56 76.68 437.16 79.44 440.00 79.46 C 444.72 79.96 449.14 77.67 452.00 74.00 C 455.59 69.47 456.58 64.38 457.68 58.86 C 456.64 58.20 455.60 57.55 454.56 56.88 C 455.00 55.56 455.44 54.24 455.84 52.91 C 454.90 52.06 453.97 51.21 453.04 50.36 C 449.79 50.39 446.88 49.83 444.05 51.82 C 437.48 56.20 434.35 63.82 433.34 71.40 C 432.13 72.22 430.92 73.04 429.72 73.85 C 428.51 71.61 427.23 69.67 427.24 67.01 C 426.92 60.04 430.09 55.02 431.03 48.09 C 423.15 49.21 419.31 54.62 414.13 59.92 C 414.78 53.39 416.80 46.88 418.51 40.54 C 419.37 37.10 421.05 33.58 421.23 30.03 C 419.60 26.93 417.38 25.98 413.95 26.33 Z M 465.54 79.79 C 470.37 79.23 473.99 76.84 477.87 74.17 C 479.34 75.95 480.86 78.17 482.95 79.26 C 486.22 80.13 490.16 79.94 493.10 78.13 C 496.99 75.78 499.93 72.32 501.98 68.30 C 499.76 68.58 497.90 68.46 496.37 70.38 C 494.51 71.80 493.21 75.74 490.49 74.46 C 487.79 73.51 486.52 71.32 484.88 69.17 C 489.82 66.06 494.79 63.07 497.67 57.77 C 498.73 55.99 498.47 53.70 498.60 51.66 C 497.87 50.86 497.14 50.06 496.41 49.25 C 488.52 48.48 482.56 54.67 479.34 61.19 C 477.64 64.35 477.33 67.65 477.24 71.18 C 475.41 72.37 473.59 73.55 471.76 74.72 C 469.11 71.19 468.67 67.25 468.52 62.96 C 472.61 56.74 476.42 50.11 478.60 42.95 C 480.20 38.01 479.76 32.76 479.65 27.65 C 478.71 27.25 477.76 26.86 476.82 26.46 C 474.74 27.46 472.91 28.58 471.75 30.65 C 467.95 37.38 465.55 45.05 463.74 52.53 C 462.11 59.06 461.13 66.26 462.03 72.97 C 462.31 75.74 463.81 77.74 465.54 79.79 Z M 509.77 80.59 C 510.69 79.04 511.63 77.50 512.58 75.96 C 511.63 73.67 510.69 71.37 509.76 69.07 C 508.23 71.51 506.33 74.19 505.63 77.01 C 505.56 79.67 507.90 79.70 509.77 80.59 Z M 112.66 121.51 C 112.68 128.57 112.73 135.63 112.61 142.69 C 114.14 142.91 115.67 143.12 117.20 143.34 C 117.21 138.32 117.20 133.30 117.29 128.29 C 119.15 132.83 120.96 137.39 122.74 141.97 C 123.92 141.89 125.10 141.82 126.28 141.73 C 127.88 137.31 129.58 132.93 131.38 128.58 C 131.63 133.44 131.61 138.30 131.59 143.16 C 132.97 143.17 134.35 143.18 135.73 143.18 C 135.72 135.90 135.75 128.62 135.70 121.34 C 133.99 121.36 132.28 121.37 130.57 121.39 C 128.72 126.01 126.88 130.63 125.14 135.30 C 124.72 135.40 124.30 135.50 123.89 135.60 C 122.06 130.82 120.10 126.10 118.26 121.34 C 116.39 121.38 114.53 121.45 112.66 121.51 Z M 166.43 143.13 C 167.91 143.15 169.40 143.18 170.88 143.21 C 170.86 135.86 170.93 128.50 170.82 121.15 C 169.42 121.27 168.00 121.36 166.61 121.58 C 166.16 128.73 166.59 135.96 166.43 143.13 Z M 557.35 143.09 C 558.71 143.14 560.07 143.18 561.43 143.22 C 561.44 138.38 561.43 133.54 561.51 128.70 C 563.70 133.16 565.64 137.68 567.34 142.35 C 568.63 141.90 570.10 142.22 570.66 140.82 C 572.61 136.85 573.95 132.63 576.20 128.78 C 576.35 133.59 576.32 138.40 576.33 143.21 C 577.66 143.19 578.98 143.17 580.31 143.15 C 580.30 135.78 580.42 128.43 580.20 121.06 C 578.53 121.31 576.58 121.24 575.02 121.88 C 572.42 126.42 571.16 131.64 568.70 136.28 C 566.64 131.28 564.67 126.25 562.55 121.28 C 560.88 121.33 559.20 121.35 557.54 121.53 C 557.04 128.68 557.51 135.92 557.35 143.09 Z M 610.82 121.35 C 610.70 128.63 610.76 135.90 610.77 143.17 C 612.28 143.17 613.78 143.17 615.29 143.17 C 615.31 140.55 615.33 137.92 615.35 135.29 C 616.65 135.35 617.96 135.40 619.26 135.47 C 620.54 138.04 621.82 140.62 623.10 143.19 C 624.75 143.16 626.39 143.13 628.04 143.10 C 626.71 140.43 625.37 137.79 624.06 135.13 C 625.62 132.94 627.81 130.90 627.56 127.98 C 627.73 124.94 625.10 122.37 622.26 121.78 C 618.55 121.08 614.59 121.39 610.82 121.35 Z M 273.97 125.85 C 272.74 126.86 271.67 127.90 270.65 129.12 C 271.89 129.61 273.13 130.09 274.37 130.57 C 274.34 134.24 274.37 137.91 274.40 141.58 C 276.48 142.37 278.70 143.60 280.97 143.13 C 281.68 142.41 282.37 141.66 283.03 140.89 C 281.60 140.30 280.18 139.72 278.75 139.15 C 278.63 136.20 278.57 133.24 278.51 130.29 C 279.64 130.09 280.78 129.88 281.92 129.68 C 281.84 128.67 281.77 127.65 281.69 126.64 C 280.66 126.63 279.64 126.61 278.61 126.59 C 278.57 125.16 278.53 123.73 278.49 122.30 C 277.24 122.42 275.97 122.50 274.73 122.71 C 274.45 123.75 274.19 124.80 273.97 125.85 Z M 195.93 122.99 C 195.82 124.01 195.70 125.04 195.57 126.06 C 193.91 126.68 193.11 127.70 193.15 129.10 C 193.98 129.64 194.81 130.17 195.66 130.68 C 195.56 134.65 195.76 138.48 196.64 142.36 C 199.09 142.76 201.54 143.11 204.00 143.42 C 203.64 140.10 203.21 140.35 200.59 138.93 C 200.45 136.05 200.40 133.17 200.34 130.29 C 201.52 130.06 202.70 129.84 203.88 129.61 L 203.55 126.63 C 202.51 126.63 201.47 126.62 200.43 126.62 C 200.41 125.28 200.39 123.95 200.37 122.61 C 199.12 122.54 197.87 122.47 196.61 122.41 L 195.93 122.99 Z M 150.81 126.70 C 149.50 130.93 148.48 135.23 147.14 139.45 C 145.94 135.12 144.73 130.79 143.39 126.51 C 141.83 126.54 140.28 126.58 138.72 126.62 C 140.54 132.48 143.04 138.17 144.50 144.12 C 143.20 144.88 141.84 145.50 140.48 146.15 C 140.49 147.31 140.51 148.47 140.52 149.64 C 142.59 149.16 145.00 148.93 146.85 147.86 C 148.54 146.61 149.40 144.11 150.14 142.21 C 151.89 137.01 153.76 131.80 155.13 126.49 C 153.69 126.54 152.24 126.59 150.81 126.70 Z M 180.18 128.61 C 179.03 126.47 177.57 126.70 175.45 126.12 C 175.26 131.80 175.33 137.49 175.34 143.19 C 176.79 143.19 178.25 143.19 179.70 143.19 C 179.57 138.98 179.61 134.82 180.39 130.67 C 181.26 130.36 182.14 130.06 183.02 129.75 C 183.81 130.03 184.60 130.32 185.39 130.60 C 186.17 134.83 186.41 138.92 186.30 143.21 C 187.71 143.18 189.12 143.14 190.53 143.10 C 190.52 139.40 190.69 135.68 190.45 131.99 C 190.43 129.75 188.87 128.10 187.72 126.30 C 184.67 126.48 182.44 126.26 180.18 128.61 Z M 222.13 138.53 C 219.03 138.45 216.77 139.08 213.97 140.30 C 213.20 140.01 212.44 139.72 211.67 139.43 C 211.13 138.40 210.59 137.36 210.05 136.33 C 214.01 135.60 217.99 135.55 222.00 135.59 C 221.65 131.18 220.50 129.47 217.54 126.45 C 214.21 126.64 210.83 125.63 208.37 128.37 C 205.59 130.70 206.02 134.76 206.35 137.99 C 207.15 142.38 212.10 144.12 216.08 143.22 C 218.99 142.72 220.33 140.58 222.13 138.53 Z M 252.54 138.78 C 251.33 138.67 250.11 138.57 248.89 138.48 C 247.54 139.24 246.18 139.99 244.82 140.74 C 242.55 139.21 241.84 138.43 240.98 135.74 C 244.96 135.66 248.94 135.69 252.91 135.60 C 252.54 131.34 251.28 129.44 248.49 126.46 C 246.22 126.49 243.80 126.27 241.59 126.77 C 236.39 128.90 235.56 136.30 238.40 140.56 C 242.20 145.16 249.89 144.16 252.54 138.78 Z M 254.80 138.35 C 256.18 141.24 257.43 143.15 260.95 143.35 C 264.76 143.81 270.43 142.07 269.51 137.20 C 269.02 133.46 263.17 133.68 260.53 131.95 C 260.30 131.07 260.09 130.18 259.90 129.28 C 263.21 129.92 266.44 130.83 269.77 131.36 C 268.38 129.18 267.82 126.81 264.85 126.51 C 260.97 126.10 256.41 126.23 255.60 130.96 C 254.79 135.54 260.31 135.82 263.30 137.02 C 265.39 137.13 265.45 140.56 263.06 140.28 C 260.29 139.63 257.63 138.72 254.80 138.35 Z M 284.06 132.52 C 287.27 136.26 291.88 136.07 295.43 139.14 C 291.98 140.35 291.04 140.78 287.90 138.74 C 286.55 138.73 285.21 138.74 283.87 138.76 C 285.34 140.77 286.23 142.69 288.92 143.14 C 292.85 144.12 295.77 142.61 298.93 140.50 C 298.56 138.75 299.16 135.63 297.22 134.78 C 294.15 133.38 290.85 132.71 287.91 130.98 C 291.89 128.15 294.69 131.09 299.03 131.38 C 297.90 129.65 297.09 127.10 294.80 126.63 C 292.33 126.26 288.81 126.01 286.74 127.72 C 285.41 128.88 284.80 130.95 284.06 132.52 Z M 645.91 138.39 C 643.13 138.66 640.56 139.28 637.93 140.20 C 637.15 139.95 636.38 139.70 635.61 139.45 C 635.06 138.40 634.51 137.35 633.97 136.29 C 637.98 135.67 642.00 135.52 646.06 135.53 C 645.22 131.93 644.94 128.76 641.37 126.83 C 639.44 126.18 636.50 126.20 634.57 126.80 C 629.22 129.39 628.38 137.47 632.46 141.54 C 634.86 143.78 638.80 143.83 641.72 142.71 C 643.60 142.02 644.73 139.87 645.91 138.39 Z M 648.67 148.49 C 650.26 148.53 651.84 148.58 653.43 148.62 C 653.41 146.18 653.38 143.74 653.32 141.30 C 656.39 142.82 658.89 144.49 662.23 142.30 C 665.90 139.65 665.84 132.78 663.87 129.14 C 661.25 125.14 657.19 126.14 653.72 128.35 C 653.23 127.72 652.74 127.09 652.24 126.47 C 651.27 126.50 650.30 126.59 649.35 126.72 C 648.58 128.26 648.68 130.30 648.62 132.00 C 648.67 137.50 648.72 142.99 648.67 148.49 Z M 667.53 138.42 C 668.97 140.75 669.95 142.77 672.95 143.19 C 676.97 144.15 679.74 142.33 682.91 140.23 C 682.35 138.31 682.67 135.49 680.47 134.60 C 677.54 133.28 674.42 132.44 671.54 130.98 C 675.28 128.47 677.95 130.49 681.78 131.39 C 681.74 130.37 681.70 129.35 681.67 128.32 C 678.27 126.30 674.07 125.40 670.53 127.59 C 668.11 129.23 667.36 133.25 670.22 134.84 C 672.69 136.10 675.61 136.55 678.06 137.94 C 678.17 139.54 677.49 140.31 676.04 140.24 C 673.19 139.71 670.41 138.84 667.53 138.42 Z M 224.91 126.25 C 224.88 131.89 224.90 137.54 224.90 143.18 C 226.39 143.18 227.87 143.18 229.36 143.18 C 229.42 139.47 228.99 135.48 229.81 131.85 C 231.41 130.76 233.47 130.18 235.17 129.27 L 235.88 126.52 C 234.49 126.52 233.10 126.53 231.71 126.54 C 231.17 127.22 230.62 127.90 230.07 128.59 C 228.71 126.43 227.17 126.72 224.91 126.25 Z M 583.11 126.67 C 585.00 132.66 587.57 138.22 588.92 144.37 C 587.17 145.32 585.42 146.26 583.68 147.24 C 585.90 148.93 588.57 149.46 591.04 148.01 C 592.89 146.47 593.87 143.71 594.73 141.52 C 596.49 136.60 598.12 131.64 599.81 126.69 C 598.34 126.60 596.87 126.50 595.40 126.41 C 593.92 130.68 592.72 135.04 591.45 139.37 C 590.29 135.02 589.13 130.67 587.67 126.40 C 586.15 126.49 584.63 126.58 583.11 126.67 Z M 88.00 284.34 C 97.00 284.34 106.00 284.34 115.00 284.34 C 121.07 284.33 126.78 284.77 132.72 283.09 C 147.72 279.30 159.23 264.53 158.84 249.00 C 159.23 233.48 147.71 218.71 132.72 214.93 C 126.40 213.17 120.44 213.74 114.00 213.68 C 105.67 213.68 97.33 213.68 89.00 213.68 C 82.34 213.73 76.18 213.15 69.67 215.07 C 54.89 219.05 43.69 233.62 44.07 249.00 C 43.69 264.18 54.58 278.60 69.11 282.79 C 75.42 284.82 81.50 284.34 88.00 284.34 Z M 738.75 256.96 C 740.61 251.87 743.82 247.23 746.28 242.40 C 748.67 237.66 752.05 233.05 753.51 227.94 C 752.30 224.64 749.81 225.82 747.00 225.50 C 735.33 225.57 723.64 225.55 711.98 225.50 C 710.06 225.66 708.19 225.27 706.82 226.88 C 706.15 228.50 706.99 229.87 707.60 231.36 C 711.37 239.15 715.74 246.65 719.61 254.39 C 721.78 258.39 720.02 263.84 721.27 267.82 C 723.06 270.22 726.09 271.79 728.37 273.72 C 730.72 275.37 733.27 278.11 736.15 278.57 C 737.19 277.79 738.26 277.31 738.33 275.86 C 738.96 269.62 737.92 263.17 738.75 256.96 Z M 306.66 257.66 C 307.56 257.81 308.46 257.97 309.36 258.13 C 309.77 256.45 309.06 252.94 310.74 251.98 C 313.67 254.79 314.27 258.42 319.07 258.10 C 317.04 255.23 314.81 252.55 312.67 249.75 C 314.27 248.28 315.86 246.82 317.46 245.36 C 317.54 244.73 317.62 244.11 317.71 243.48 C 316.97 243.52 316.23 243.55 315.49 243.59 C 313.57 245.56 311.66 247.52 309.71 249.46 C 309.64 245.55 309.64 241.64 309.48 237.73 C 308.59 238.06 307.73 238.42 306.87 238.81 C 306.34 245.04 306.85 251.40 306.66 257.66 Z M 369.39 257.75 L 371.57 257.87 C 371.59 255.99 371.61 254.12 371.63 252.24 C 372.36 252.25 373.09 252.25 373.81 252.26 C 375.18 254.06 376.56 255.85 377.90 257.68 C 378.92 257.67 379.93 257.67 380.95 257.69 C 378.85 255.10 376.73 252.53 374.67 249.91 C 376.66 247.87 378.57 245.78 380.43 243.62 C 379.70 243.65 378.97 243.67 378.24 243.69 C 376.07 245.84 373.92 248.00 371.72 250.12 C 371.57 246.01 371.66 241.90 371.46 237.79 C 370.83 238.14 370.22 238.50 369.61 238.88 C 369.08 245.11 369.57 251.48 369.39 257.75 Z M 192.53 255.79 C 190.66 255.71 188.71 255.74 186.87 255.38 C 185.85 254.61 184.91 253.69 183.97 252.81 C 183.37 252.75 182.77 252.69 182.17 252.64 C 183.05 254.57 183.35 256.52 185.48 257.50 C 188.96 259.05 194.53 258.53 195.88 254.34 C 197.02 252.10 195.82 249.40 193.56 248.49 C 191.08 247.29 187.70 246.91 185.68 245.00 C 184.76 242.54 186.70 241.07 188.98 241.22 C 191.65 240.86 192.44 242.39 194.11 244.04 C 194.69 244.18 195.26 244.32 195.83 244.47 C 195.44 243.21 195.28 241.64 194.45 240.60 C 192.40 238.49 188.77 238.43 186.16 239.34 C 183.06 240.42 181.91 244.53 183.81 247.14 C 186.41 249.52 191.16 249.29 193.64 251.85 C 193.33 253.18 192.96 254.49 192.53 255.79 Z M 199.66 237.63 C 199.38 244.60 199.36 251.68 199.66 258.64 L 201.70 257.36 C 202.24 254.23 201.65 250.77 202.53 247.73 C 203.27 246.52 205.08 245.97 206.21 245.17 C 210.05 248.10 208.22 253.53 208.60 257.77 L 211.40 257.80 C 211.40 254.52 211.60 251.16 211.22 247.90 C 210.93 245.70 209.36 243.66 207.04 243.51 C 204.89 243.23 203.71 244.48 202.06 245.56 C 201.65 242.81 203.27 238.58 199.66 237.63 Z M 258.66 239.15 C 258.64 245.38 258.64 251.61 258.65 257.85 C 261.69 257.88 264.84 258.05 267.85 257.63 C 270.88 257.40 273.15 253.95 272.17 251.09 C 271.26 249.84 270.17 248.87 269.05 247.81 C 269.91 246.95 270.76 246.09 271.61 245.24 C 271.08 242.87 271.09 240.74 268.53 239.63 C 265.40 238.82 261.87 239.16 258.66 239.15 Z M 234.19 254.63 C 232.91 250.31 232.94 245.91 229.58 242.65 C 229.38 247.67 231.77 252.81 232.91 257.74 C 233.73 257.77 234.55 257.81 235.37 257.85 C 236.26 254.36 237.26 250.91 238.62 247.57 C 239.62 251.03 240.59 254.49 241.66 257.93 C 242.51 257.84 243.36 257.74 244.21 257.64 C 245.43 252.93 246.82 248.30 247.77 243.53 C 247.09 243.59 246.41 243.65 245.73 243.71 C 244.90 246.79 244.12 249.88 243.35 252.98 C 242.88 252.79 242.40 252.60 241.93 252.41 C 241.21 249.30 240.38 246.23 239.16 243.28 C 238.22 243.73 237.49 243.85 237.19 245.00 C 236.04 248.16 235.32 251.46 234.19 254.63 Z M 275.39 255.30 C 277.82 257.06 279.75 258.77 283.00 257.87 C 287.29 256.85 288.33 252.33 287.50 248.49 C 286.39 244.14 281.30 242.00 277.55 244.74 C 274.11 246.94 275.38 251.87 275.39 255.30 Z M 293.73 257.60 C 296.06 257.69 298.37 257.72 300.70 257.67 C 302.45 255.23 303.91 253.17 303.50 249.97 C 303.52 244.99 297.73 241.75 293.61 244.83 C 289.37 248.22 290.63 253.86 293.73 257.60 Z M 321.41 243.56 C 321.27 248.33 321.24 253.10 321.33 257.88 C 322.05 257.88 322.78 257.88 323.51 257.88 C 323.47 253.93 323.41 250.05 324.40 246.19 C 326.08 246.28 327.76 246.40 329.44 246.55 C 329.63 250.33 329.64 254.10 329.65 257.88 C 330.40 257.88 331.16 257.89 331.92 257.90 C 332.00 254.67 331.76 251.33 332.25 248.13 C 332.66 247.03 333.82 246.22 334.59 245.35 C 335.58 245.85 336.57 246.34 337.57 246.84 C 337.73 250.41 337.75 253.99 337.72 257.57 C 338.64 257.67 339.55 257.76 340.46 257.85 C 340.47 254.58 340.64 251.27 340.39 248.00 C 340.39 246.16 338.55 244.59 337.53 243.18 C 335.38 243.65 333.53 244.31 331.55 245.28 C 330.59 244.77 329.63 244.21 328.62 243.79 C 325.93 243.79 324.03 245.09 321.41 243.56 Z M 343.85 247.87 C 345.76 247.17 347.62 246.41 349.47 245.56 C 351.30 246.55 352.15 247.39 353.27 249.11 C 350.71 249.55 347.93 249.65 345.49 250.54 C 342.74 251.81 343.24 256.91 346.14 257.72 C 348.46 258.70 350.17 257.71 352.25 256.78 C 353.18 257.34 354.11 257.89 355.04 258.43 C 355.07 254.71 355.43 250.80 354.80 247.12 C 354.06 242.77 346.53 242.12 344.87 246.10 L 343.85 247.87 Z M 358.57 243.57 C 358.48 248.36 358.48 253.15 358.55 257.94 C 359.49 257.87 360.43 257.80 361.37 257.73 C 361.36 254.46 361.16 251.07 361.65 247.83 C 363.61 246.26 365.84 246.01 366.79 243.38 C 365.11 243.67 363.43 243.97 361.75 244.27 C 360.68 244.07 359.63 243.82 358.57 243.57 Z M 385.68 243.68 C 384.62 244.56 383.62 245.54 382.61 246.48 C 382.60 247.47 382.59 248.46 382.59 249.45 C 385.08 250.97 387.77 251.98 390.54 252.89 C 390.54 253.86 390.55 254.82 390.55 255.79 C 388.25 255.74 386.20 255.56 384.12 254.52 C 383.38 254.56 382.64 254.61 381.90 254.66 C 383.48 256.27 384.49 257.98 386.99 258.11 C 389.79 258.31 393.28 257.26 393.51 253.99 C 393.90 252.49 392.65 251.40 391.44 250.80 C 389.18 249.79 386.80 249.04 384.51 248.08 C 385.30 247.25 386.12 246.45 386.96 245.68 C 389.09 246.06 391.19 247.05 393.22 247.80 C 392.69 246.75 392.37 245.34 391.48 244.55 C 389.96 243.22 387.57 243.61 385.68 243.68 Z M 217.69 257.61 C 220.02 257.69 222.33 257.70 224.66 257.65 C 226.34 255.22 227.84 253.12 227.43 249.98 C 227.47 245.90 223.10 242.42 219.20 244.01 C 216.47 244.89 215.10 247.21 214.89 249.97 C 214.51 253.10 216.05 255.18 217.69 257.61 Z" id="p0" />
<path d="M 335.19 25.49 C 340.09 25.00 345.02 25.05 349.31 27.76 C 352.49 29.81 355.62 33.12 356.39 36.93 C 357.29 42.07 356.61 47.42 353.92 51.93 C 349.79 58.88 342.62 63.63 334.68 65.03 C 333.13 69.38 332.30 74.19 330.21 78.31 C 328.33 80.94 322.71 79.38 320.15 78.47 C 322.74 70.28 325.77 62.31 327.73 53.91 C 327.26 53.53 326.80 53.16 326.34 52.78 C 324.66 54.02 323.22 55.23 321.02 55.29 C 317.38 55.90 314.78 52.33 314.36 49.12 C 313.63 42.69 317.02 36.82 321.57 32.57 C 325.34 29.17 330.14 26.36 335.19 25.49 Z M 328.42 52.26 C 328.49 48.48 328.26 44.02 329.73 40.48 C 331.11 37.79 333.79 37.07 336.38 36.03 C 336.92 44.14 336.28 51.99 336.23 60.09 C 339.00 59.59 341.56 59.77 343.84 57.94 C 348.98 53.67 350.68 46.67 349.03 40.31 C 346.06 32.82 337.27 29.08 329.64 30.80 C 323.24 32.92 320.52 40.30 321.67 46.51 C 322.29 49.48 326.12 50.72 328.42 52.26 Z" id="p1" />
<path d="M 421.23 30.03 C 421.05 33.58 419.37 37.10 418.51 40.54 C 416.80 46.88 414.78 53.39 414.13 59.92 C 419.31 54.62 423.15 49.21 431.03 48.09 C 430.09 55.02 426.92 60.04 427.24 67.01 C 427.23 69.67 428.51 71.61 429.72 73.85 C 430.92 73.04 432.13 72.22 433.34 71.40 C 434.35 63.82 437.48 56.20 444.05 51.82 C 446.88 49.83 449.79 50.39 453.04 50.36 C 453.97 51.21 454.90 52.06 455.84 52.91 C 455.44 54.24 455.00 55.56 454.56 56.88 C 455.60 57.55 456.64 58.20 457.68 58.86 C 456.58 64.38 455.59 69.47 452.00 74.00 C 449.14 77.67 444.72 79.96 440.00 79.46 C 437.16 79.44 435.56 76.68 433.84 74.82 C 430.70 76.57 426.96 79.52 423.17 78.58 C 420.62 77.96 420.20 75.23 419.91 73.02 C 419.41 66.41 421.77 60.12 423.53 53.88 C 419.37 57.81 416.30 62.55 413.64 67.58 C 411.73 71.16 411.70 75.97 411.32 79.96 C 409.42 79.02 407.55 78.04 405.69 77.04 C 405.55 75.74 405.40 74.45 405.26 73.15 C 402.42 75.15 399.25 77.92 395.80 78.67 C 393.46 79.10 391.55 78.47 390.56 76.20 C 389.64 69.51 390.64 63.25 391.85 56.68 C 388.47 60.31 385.41 63.91 383.56 68.58 C 382.24 71.87 382.78 76.03 382.65 79.55 C 380.26 79.00 376.88 78.83 375.23 76.78 C 374.62 74.94 374.64 72.86 374.45 70.94 C 371.15 75.11 365.73 80.02 360.01 79.53 C 355.11 79.51 351.43 74.65 351.35 70.01 C 350.97 59.78 358.94 49.70 369.29 48.34 C 370.47 49.46 371.63 50.59 372.79 51.72 C 372.49 54.05 372.55 56.17 371.24 58.23 C 368.30 62.78 363.96 65.73 359.41 68.48 C 359.43 69.16 359.45 69.84 359.46 70.52 C 361.33 72.01 363.82 74.73 366.39 74.45 C 369.03 71.07 370.97 68.73 375.17 67.25 C 376.25 62.04 377.02 55.59 380.21 51.24 C 382.52 48.66 384.86 49.69 387.78 50.28 C 386.42 53.53 385.17 56.82 384.31 60.25 C 388.97 56.08 393.69 52.34 399.21 49.35 C 399.51 49.65 399.82 49.95 400.13 50.26 C 397.96 57.08 395.95 65.86 398.20 72.83 C 400.67 73.17 403.16 71.25 405.34 70.22 C 406.20 55.45 409.40 40.39 413.95 26.33 C 417.38 25.98 419.60 26.93 421.23 30.03 Z M 358.31 65.84 C 360.22 64.69 362.39 63.51 363.90 61.85 C 365.61 59.82 366.14 56.67 364.46 54.45 C 363.46 53.90 362.65 54.02 362.02 54.81 C 359.38 57.80 358.59 61.99 358.31 65.84 Z M 452.99 57.24 C 451.98 57.66 450.96 58.08 449.94 58.50 C 448.69 57.42 447.45 56.34 446.18 55.29 C 443.74 55.63 442.91 58.21 442.15 60.20 C 440.82 64.27 440.28 70.08 443.48 73.43 C 444.51 73.72 446.27 74.04 447.04 73.07 C 451.29 68.76 452.85 63.17 452.99 57.24 Z" id="p2" />
<path d="M 476.82 26.46 C 477.76 26.86 478.71 27.25 479.65 27.65 C 479.76 32.76 480.20 38.01 478.60 42.95 C 476.42 50.11 472.61 56.74 468.52 62.96 C 468.67 67.25 469.11 71.19 471.76 74.72 C 473.59 73.55 475.41 72.37 477.24 71.18 C 477.33 67.65 477.64 64.35 479.34 61.19 C 482.56 54.67 488.52 48.48 496.41 49.25 C 497.14 50.06 497.87 50.86 498.60 51.66 C 498.47 53.70 498.73 55.99 497.67 57.77 C 494.79 63.07 489.82 66.06 484.88 69.17 C 486.52 71.32 487.79 73.51 490.49 74.46 C 493.21 75.74 494.51 71.80 496.37 70.38 C 497.90 68.46 499.76 68.58 501.98 68.30 C 499.93 72.32 496.99 75.78 493.10 78.13 C 490.16 79.94 486.22 80.13 482.95 79.26 C 480.86 78.17 479.34 75.95 477.87 74.17 C 473.99 76.84 470.37 79.23 465.54 79.79 C 463.81 77.74 462.31 75.74 462.03 72.97 C 461.13 66.26 462.11 59.06 463.74 52.53 C 465.55 45.05 467.95 37.38 471.75 30.65 C 472.91 28.58 474.74 27.46 476.82 26.46 Z M 474.96 35.11 C 471.69 41.87 470.89 48.96 468.97 56.06 C 469.42 55.71 469.87 55.36 470.32 55.01 C 473.56 48.26 475.78 41.47 476.03 33.91 C 475.67 34.31 475.31 34.70 474.96 35.11 Z M 484.32 66.17 C 487.00 64.56 490.95 62.48 491.60 59.08 C 492.10 56.86 490.99 55.62 489.77 53.96 C 485.36 56.49 485.06 61.67 484.32 66.17 Z" id="p3" />
<path d="M 329.64 30.80 C 337.27 29.08 346.06 32.82 349.03 40.31 C 350.68 46.67 348.98 53.67 343.84 57.94 C 341.56 59.77 339.00 59.59 336.23 60.09 C 336.28 51.99 336.92 44.14 336.38 36.03 C 333.79 37.07 331.11 37.79 329.73 40.48 C 328.26 44.02 328.49 48.48 328.42 52.26 C 326.12 50.72 322.29 49.48 321.67 46.51 C 320.52 40.30 323.24 32.92 329.64 30.80 Z" id="p4" />
<path d="M 476.03 33.91 C 475.78 41.47 473.56 48.26 470.32 55.01 C 469.87 55.36 469.42 55.71 468.97 56.06 C 470.89 48.96 471.69 41.87 474.96 35.11 C 475.31 34.70 475.67 34.31 476.03 33.91 Z" id="p5" />
<path d="M 364.46 54.45 C 366.14 56.67 365.61 59.82 363.90 61.85 C 362.39 63.51 360.22 64.69 358.31 65.84 C 358.59 61.99 359.38 57.80 362.02 54.81 C 362.65 54.02 363.46 53.90 364.46 54.45 Z" id="p6" />
<path d="M 489.77 53.96 C 490.99 55.62 492.10 56.86 491.60 59.08 C 490.95 62.48 487.00 64.56 484.32 66.17 C 485.06 61.67 485.36 56.49 489.77 53.96 Z" id="p7" />
<path d="M 446.18 55.29 C 447.45 56.34 448.69 57.42 449.94 58.50 C 450.96 58.08 451.98 57.66 452.99 57.24 C 452.85 63.17 451.29 68.76 447.04 73.07 C 446.27 74.04 444.51 73.72 443.48 73.43 C 440.28 70.08 440.82 64.27 442.15 60.20 C 442.91 58.21 443.74 55.63 446.18 55.29 Z" id="p8" />
<path d="M 509.76 69.07 C 510.69 71.37 511.63 73.67 512.58 75.96 C 511.63 77.50 510.69 79.04 509.77 80.59 C 507.90 79.70 505.56 79.67 505.63 77.01 C 506.33 74.19 508.23 71.51 509.76 69.07 Z" id="p9" />
<path d="M 118.26 121.34 C 120.10 126.10 122.06 130.82 123.89 135.60 C 124.30 135.50 124.72 135.40 125.14 135.30 C 126.88 130.63 128.72 126.01 130.57 121.39 C 132.28 121.37 133.99 121.36 135.70 121.34 C 135.75 128.62 135.72 135.90 135.73 143.18 C 134.35 143.18 132.97 143.17 131.59 143.16 C 131.61 138.30 131.63 133.44 131.38 128.58 C 129.58 132.93 127.88 137.31 126.28 141.73 C 125.10 141.82 123.92 141.89 122.74 141.97 C 120.96 137.39 119.15 132.83 117.29 128.29 C 117.20 133.30 117.21 138.32 117.20 143.34 C 115.67 143.12 114.14 142.91 112.61 142.69 C 112.73 135.63 112.68 128.57 112.66 121.51 C 114.53 121.45 116.39 121.38 118.26 121.34 Z" id="p10" />
<path d="M 166.61 121.58 C 168.00 121.36 169.42 121.27 170.82 121.15 C 170.93 128.50 170.86 135.86 170.88 143.21 C 169.40 143.18 167.91 143.15 166.43 143.13 C 166.59 135.96 166.16 128.73 166.61 121.58 Z" id="p11" />
<path d="M 557.54 121.53 C 559.20 121.35 560.88 121.33 562.55 121.28 C 564.67 126.25 566.64 131.28 568.70 136.28 C 571.16 131.64 572.42 126.42 575.02 121.88 C 576.58 121.24 578.53 121.31 580.20 121.06 C 580.42 128.43 580.30 135.78 580.31 143.15 C 578.98 143.17 577.66 143.19 576.33 143.21 C 576.32 138.40 576.35 133.59 576.20 128.78 C 573.95 132.63 572.61 136.85 570.66 140.82 C 570.10 142.22 568.63 141.90 567.34 142.35 C 565.64 137.68 563.70 133.16 561.51 128.70 C 561.43 133.54 561.44 138.38 561.43 143.22 C 560.07 143.18 558.71 143.14 557.35 143.09 C 557.51 135.92 557.04 128.68 557.54 121.53 Z" id="p12" />
<path d="M 610.82 121.35 C 614.59 121.39 618.55 121.08 622.26 121.78 C 625.10 122.37 627.73 124.94 627.56 127.98 C 627.81 130.90 625.62 132.94 624.06 135.13 C 625.37 137.79 626.71 140.43 628.04 143.10 C 626.39 143.13 624.75 143.16 623.10 143.19 C 621.82 140.62 620.54 138.04 619.26 135.47 C 617.96 135.40 616.65 135.35 615.35 135.29 C 615.33 137.92 615.31 140.55 615.29 143.17 C 613.78 143.17 612.28 143.17 610.77 143.17 C 610.76 135.90 610.70 128.63 610.82 121.35 Z M 615.24 131.90 C 617.41 131.59 620.81 132.11 622.46 130.45 C 622.96 129.10 623.12 127.04 621.98 125.97 C 620.39 124.47 617.63 124.61 615.60 124.69 C 615.27 127.06 615.29 129.51 615.24 131.90 Z" id="p13" />
<path d="M 274.73 122.71 C 275.97 122.50 277.24 122.42 278.49 122.30 C 278.53 123.73 278.57 125.16 278.61 126.59 C 279.64 126.61 280.66 126.63 281.69 126.64 C 281.77 127.65 281.84 128.67 281.92 129.68 C 280.78 129.88 279.64 130.09 278.51 130.29 C 278.57 133.24 278.63 136.20 278.75 139.15 C 280.18 139.72 281.60 140.30 283.03 140.89 C 282.37 141.66 281.68 142.41 280.97 143.13 C 278.70 143.60 276.48 142.37 274.40 141.58 C 274.37 137.91 274.34 134.24 274.37 130.57 C 273.13 130.09 271.89 129.61 270.65 129.12 C 271.67 127.90 272.74 126.86 273.97 125.85 C 274.19 124.80 274.45 123.75 274.73 122.71 Z" id="p14" />
<path d="M 195.93 122.99 L 196.61 122.41 C 197.87 122.47 199.12 122.54 200.37 122.61 C 200.39 123.95 200.41 125.28 200.43 126.62 C 201.47 126.62 202.51 126.63 203.55 126.63 L 203.88 129.61 C 202.70 129.84 201.52 130.06 200.34 130.29 C 200.40 133.17 200.45 136.05 200.59 138.93 C 203.21 140.35 203.64 140.10 204.00 143.42 C 201.54 143.11 199.09 142.76 196.64 142.36 C 195.76 138.48 195.56 134.65 195.66 130.68 C 194.81 130.17 193.98 129.64 193.15 129.10 C 193.11 127.70 193.91 126.68 195.57 126.06 C 195.70 125.04 195.82 124.01 195.93 122.99 Z" id="p15" />
<path d="M 615.60 124.69 C 617.63 124.61 620.39 124.47 621.98 125.97 C 623.12 127.04 622.96 129.10 622.46 130.45 C 620.81 132.11 617.41 131.59 615.24 131.90 C 615.29 129.51 615.27 127.06 615.60 124.69 Z" id="p16" />
<path d="M 155.13 126.49 C 153.76 131.80 151.89 137.01 150.14 142.21 C 149.40 144.11 148.54 146.61 146.85 147.86 C 145.00 148.93 142.59 149.16 140.52 149.64 C 140.51 148.47 140.49 147.31 140.48 146.15 C 141.84 145.50 143.20 144.88 144.50 144.12 C 143.04 138.17 140.54 132.48 138.72 126.62 C 140.28 126.58 141.83 126.54 143.39 126.51 C 144.73 130.79 145.94 135.12 147.14 139.45 C 148.48 135.23 149.50 130.93 150.81 126.70 C 152.24 126.59 153.69 126.54 155.13 126.49 Z" id="p17" />
<path d="M 187.72 126.30 C 188.87 128.10 190.43 129.75 190.45 131.99 C 190.69 135.68 190.52 139.40 190.53 143.10 C 189.12 143.14 187.71 143.18 186.30 143.21 C 186.41 138.92 186.17 134.83 185.39 130.60 C 184.60 130.32 183.81 130.03 183.02 129.75 C 182.14 130.06 181.26 130.36 180.39 130.67 C 179.61 134.82 179.57 138.98 179.70 143.19 C 178.25 143.19 176.79 143.19 175.34 143.19 C 175.33 137.49 175.26 131.80 175.45 126.12 C 177.57 126.70 179.03 126.47 180.18 128.61 C 182.44 126.26 184.67 126.48 187.72 126.30 Z" id="p18" />
<path d="M 217.54 126.45 C 220.50 129.47 221.65 131.18 222.00 135.59 C 217.99 135.55 214.01 135.60 210.05 136.33 C 210.59 137.36 211.13 138.40 211.67 139.43 C 212.44 139.72 213.20 140.01 213.97 140.30 C 216.77 139.08 219.03 138.45 222.13 138.53 C 220.33 140.58 218.99 142.72 216.08 143.22 C 212.10 144.12 207.15 142.38 206.35 137.99 C 206.02 134.76 205.59 130.70 208.37 128.37 C 210.83 125.63 214.21 126.64 217.54 126.45 Z M 218.24 132.39 C 216.63 131.21 215.48 129.16 213.23 129.62 C 211.59 129.78 210.82 131.51 210.10 132.77 C 212.90 133.64 215.50 133.24 218.24 132.39 Z" id="p19" />
<path d="M 241.59 126.77 C 243.80 126.27 246.22 126.49 248.49 126.46 C 251.28 129.44 252.54 131.34 252.91 135.60 C 248.94 135.69 244.96 135.66 240.98 135.74 C 241.84 138.43 242.55 139.21 244.82 140.74 C 246.18 139.99 247.54 139.24 248.89 138.48 C 250.11 138.57 251.33 138.67 252.54 138.78 C 249.89 144.16 242.20 145.16 238.40 140.56 C 235.56 136.30 236.39 128.90 241.59 126.77 Z M 240.94 133.26 C 243.15 133.04 246.97 133.99 248.58 132.19 C 247.41 131.00 246.75 129.39 244.83 129.58 C 242.33 129.52 241.98 131.49 240.94 133.26 Z" id="p20" />
<path d="M 264.85 126.51 C 267.82 126.81 268.38 129.18 269.77 131.36 C 266.44 130.83 263.21 129.92 259.90 129.28 C 260.09 130.18 260.30 131.07 260.53 131.95 C 263.17 133.68 269.02 133.46 269.51 137.20 C 270.43 142.07 264.76 143.81 260.95 143.35 C 257.43 143.15 256.18 141.24 254.80 138.35 C 257.63 138.72 260.29 139.63 263.06 140.28 C 265.45 140.56 265.39 137.13 263.30 137.02 C 260.31 135.82 254.79 135.54 255.60 130.96 C 256.41 126.23 260.97 126.10 264.85 126.51 Z" id="p21" />
<path d="M 294.80 126.63 C 297.09 127.10 297.90 129.65 299.03 131.38 C 294.69 131.09 291.89 128.15 287.91 130.98 C 290.85 132.71 294.15 133.38 297.22 134.78 C 299.16 135.63 298.56 138.75 298.93 140.50 C 295.77 142.61 292.85 144.12 288.92 143.14 C 286.23 142.69 285.34 140.77 283.87 138.76 C 285.21 138.74 286.55 138.73 287.90 138.74 C 291.04 140.78 291.98 140.35 295.43 139.14 C 291.88 136.07 287.27 136.26 284.06 132.52 C 284.80 130.95 285.41 128.88 286.74 127.72 C 288.81 126.01 292.33 126.26 294.80 126.63 Z" id="p22" />
<path d="M 634.57 126.80 C 636.50 126.20 639.44 126.18 641.37 126.83 C 644.94 128.76 645.22 131.93 646.06 135.53 C 642.00 135.52 637.98 135.67 633.97 136.29 C 634.51 137.35 635.06 138.40 635.61 139.45 C 636.38 139.70 637.15 139.95 637.93 140.20 C 640.56 139.28 643.13 138.66 645.91 138.39 C 644.73 139.87 643.60 142.02 641.72 142.71 C 638.80 143.83 634.86 143.78 632.46 141.54 C 628.38 137.47 629.22 129.39 634.57 126.80 Z M 633.73 132.99 C 636.11 133.11 638.49 133.19 640.87 133.25 C 640.80 132.18 640.72 131.12 640.63 130.05 C 639.39 129.91 638.14 129.81 636.89 129.77 C 635.54 130.26 634.67 131.96 633.73 132.99 Z" id="p23" />
<path d="M 649.35 126.72 C 650.30 126.59 651.27 126.50 652.24 126.47 C 652.74 127.09 653.23 127.72 653.72 128.35 C 657.19 126.14 661.25 125.14 663.87 129.14 C 665.84 132.78 665.90 139.65 662.23 142.30 C 658.89 144.49 656.39 142.82 653.32 141.30 C 653.38 143.74 653.41 146.18 653.43 148.62 C 651.84 148.58 650.26 148.53 648.67 148.49 C 648.72 142.99 648.67 137.50 648.62 132.00 C 648.68 130.30 648.58 128.26 649.35 126.72 Z M 655.35 130.35 C 652.51 131.98 652.68 139.02 656.18 139.68 C 660.89 140.62 661.63 134.16 659.73 131.32 C 658.72 129.87 656.89 129.85 655.35 130.35 Z" id="p24" />
<path d="M 681.67 128.32 C 681.70 129.35 681.74 130.37 681.78 131.39 C 677.95 130.49 675.28 128.47 671.54 130.98 C 674.42 132.44 677.54 133.28 680.47 134.60 C 682.67 135.49 682.35 138.31 682.91 140.23 C 679.74 142.33 676.97 144.15 672.95 143.19 C 669.95 142.77 668.97 140.75 667.53 138.42 C 670.41 138.84 673.19 139.71 676.04 140.24 C 677.49 140.31 678.17 139.54 678.06 137.94 C 675.61 136.55 672.69 136.10 670.22 134.84 C 667.36 133.25 668.11 129.23 670.53 127.59 C 674.07 125.40 678.27 126.30 681.67 128.32 Z" id="p25" />
<path d="M 224.91 126.25 C 227.17 126.72 228.71 126.43 230.07 128.59 C 230.62 127.90 231.17 127.22 231.71 126.54 C 233.10 126.53 234.49 126.52 235.88 126.52 L 235.17 129.27 C 233.47 130.18 231.41 130.76 229.81 131.85 C 228.99 135.48 229.42 139.47 229.36 143.18 C 227.87 143.18 226.39 143.18 224.90 143.18 C 224.90 137.54 224.88 131.89 224.91 126.25 Z" id="p26" />
<path d="M 583.11 126.67 C 584.63 126.58 586.15 126.49 587.67 126.40 C 589.13 130.67 590.29 135.02 591.45 139.37 C 592.72 135.04 593.92 130.68 595.40 126.41 C 596.87 126.50 598.34 126.60 599.81 126.69 C 598.12 131.64 596.49 136.60 594.73 141.52 C 593.87 143.71 592.89 146.47 591.04 148.01 C 588.57 149.46 585.90 148.93 583.68 147.24 C 585.42 146.26 587.17 145.32 588.92 144.37 C 587.57 138.22 585.00 132.66 583.11 126.67 Z" id="p27" />
<path d="M 213.23 129.62 C 215.48 129.16 216.63 131.21 218.24 132.39 C 215.50 133.24 212.90 133.64 210.10 132.77 C 210.82 131.51 211.59 129.78 213.23 129.62 Z" id="p28" />
<path d="M 244.83 129.58 C 246.75 129.39 247.41 131.00 248.58 132.19 C 246.97 133.99 243.15 133.04 240.94 133.26 C 241.98 131.49 242.33 129.52 244.83 129.58 Z" id="p29" />
<path d="M 636.89 129.77 C 638.14 129.81 639.39 129.91 640.63 130.05 C 640.72 131.12 640.80 132.18 640.87 133.25 C 638.49 133.19 636.11 133.11 633.73 132.99 C 634.67 131.96 635.54 130.26 636.89 129.77 Z" id="p30" />
<path d="M 655.35 130.35 C 656.89 129.85 658.72 129.87 659.73 131.32 C 661.63 134.16 660.89 140.62 656.18 139.68 C 652.68 139.02 652.51 131.98 655.35 130.35 Z" id="p31" />
<path d="M 3.19 186.40 C 7.08 185.92 11.09 186.23 15.00 186.18 C 142.67 186.19 270.33 186.18 398.00 186.18 C 401.67 186.21 405.36 186.02 409.03 186.25 C 410.97 186.25 412.04 187.50 413.56 188.52 C 413.56 189.87 413.57 191.22 413.59 192.58 C 412.07 193.60 410.99 194.83 409.03 194.86 C 405.37 195.11 401.67 194.91 398.00 194.94 C 267.32 194.94 136.65 194.93 5.97 194.94 C 2.70 194.88 1.86 194.67 0.00 191.96 L 0.00 189.01 C 0.86 188.14 1.89 186.52 3.19 186.40 Z" id="p32" />
<path d="M 69.67 215.07 C 76.18 213.15 82.34 213.73 89.00 213.68 C 97.33 213.68 105.67 213.68 114.00 213.68 C 120.44 213.74 126.40 213.17 132.72 214.93 C 147.71 218.71 159.23 233.48 158.84 249.00 C 159.23 264.53 147.72 279.30 132.72 283.09 C 126.78 284.77 121.07 284.33 115.00 284.34 C 106.00 284.34 97.00 284.34 88.00 284.34 C 81.50 284.34 75.42 284.82 69.11 282.79 C 54.58 278.60 43.69 264.18 44.07 249.00 C 43.69 233.62 54.89 219.05 69.67 215.07 Z M 67.18 218.44 C 54.85 223.31 46.27 235.70 46.34 249.00 C 46.26 262.30 54.88 274.79 67.26 279.59 C 71.65 281.52 76.23 282.09 81.00 282.07 C 94.67 282.05 108.33 282.06 122.00 282.07 C 127.75 282.09 133.39 281.15 138.52 278.47 C 152.15 271.52 159.65 255.26 155.39 240.44 C 151.82 226.80 139.17 216.41 125.00 216.05 C 113.01 215.82 101.00 216.04 89.00 215.96 C 81.31 216.05 74.43 215.24 67.18 218.44 Z" id="p33" />
<path d="M 89.00 215.96 C 101.00 216.04 113.01 215.82 125.00 216.05 C 139.17 216.41 151.82 226.80 155.39 240.44 C 159.65 255.26 152.15 271.52 138.52 278.47 C 133.39 281.15 127.75 282.09 122.00 282.07 C 108.33 282.06 94.67 282.05 81.00 282.07 C 76.23 282.09 71.65 281.52 67.26 279.59 C 71.83 279.53 76.43 279.96 81.00 279.69 C 96.09 277.97 108.39 264.29 108.07 249.00 C 108.38 233.72 96.07 220.05 81.00 218.32 C 76.41 218.01 71.78 218.41 67.18 218.44 C 74.43 215.24 81.31 216.05 89.00 215.96 Z" id="p34" />
<path d="M 81.00 218.32 C 96.07 220.05 108.38 233.72 108.07 249.00 C 108.39 264.29 96.09 277.97 81.00 279.69 C 76.43 279.96 71.83 279.53 67.26 279.59 C 54.88 274.79 46.26 262.30 46.34 249.00 C 46.27 235.70 54.85 223.31 67.18 218.44 C 71.78 218.41 76.41 218.01 81.00 218.32 Z" id="p35" />
<path d="M 711.98 225.50 C 723.64 225.55 735.33 225.57 747.00 225.50 C 749.81 225.82 752.30 224.64 753.51 227.94 C 752.05 233.05 748.67 237.66 746.28 242.40 C 743.82 247.23 740.61 251.87 738.75 256.96 C 737.92 263.17 738.96 269.62 738.33 275.86 C 738.26 277.31 737.19 277.79 736.15 278.57 C 733.27 278.11 730.72 275.37 728.37 273.72 C 726.09 271.79 723.06 270.22 721.27 267.82 C 720.02 263.84 721.78 258.39 719.61 254.39 C 715.74 246.65 711.37 239.15 707.60 231.36 C 706.99 229.87 706.15 228.50 706.82 226.88 C 708.19 225.27 710.06 225.66 711.98 225.50 Z M 714.37 231.41 C 717.03 236.81 719.74 242.19 722.53 247.52 C 723.81 250.04 725.47 252.52 726.35 255.21 C 726.94 258.41 726.65 261.81 726.67 265.05 C 728.59 266.49 730.51 267.91 732.44 269.32 C 732.95 263.47 731.18 256.69 734.51 251.74 C 738.24 245.08 741.95 238.31 745.27 231.43 C 734.97 231.35 724.67 231.38 714.37 231.41 Z" id="p36" />
<path d="M 714.37 231.41 C 724.67 231.38 734.97 231.35 745.27 231.43 C 741.95 238.31 738.24 245.08 734.51 251.74 C 731.18 256.69 732.95 263.47 732.44 269.32 C 730.51 267.91 728.59 266.49 726.67 265.05 C 726.65 261.81 726.94 258.41 726.35 255.21 C 725.47 252.52 723.81 250.04 722.53 247.52 C 719.74 242.19 717.03 236.81 714.37 231.41 Z" id="p37" />
<path d="M 306.87 238.81 C 307.73 238.42 308.59 238.06 309.48 237.73 C 309.64 241.64 309.64 245.55 309.71 249.46 C 311.66 247.52 313.57 245.56 315.49 243.59 C 316.23 243.55 316.97 243.52 317.71 243.48 C 317.62 244.11 317.54 244.73 317.46 245.36 C 315.86 246.82 314.27 248.28 312.67 249.75 C 314.81 252.55 317.04 255.23 319.07 258.10 C 314.27 258.42 313.67 254.79 310.74 251.98 C 309.06 252.94 309.77 256.45 309.36 258.13 C 308.46 257.97 307.56 257.81 306.66 257.66 C 306.85 251.40 306.34 245.04 306.87 238.81 Z" id="p38" />
<path d="M 369.61 238.88 C 370.22 238.50 370.83 238.14 371.46 237.79 C 371.66 241.90 371.57 246.01 371.72 250.12 C 373.92 248.00 376.07 245.84 378.24 243.69 C 378.97 243.67 379.70 243.65 380.43 243.62 C 378.57 245.78 376.66 247.87 374.67 249.91 C 376.73 252.53 378.85 255.10 380.95 257.69 C 379.93 257.67 378.92 257.67 377.90 257.68 C 376.56 255.85 375.18 254.06 373.81 252.26 C 373.09 252.25 372.36 252.25 371.63 252.24 C 371.61 254.12 371.59 255.99 371.57 257.87 L 369.39 257.75 C 369.57 251.48 369.08 245.11 369.61 238.88 Z" id="p39" />
<path d="M 186.16 239.34 C 188.77 238.43 192.40 238.49 194.45 240.60 C 195.28 241.64 195.44 243.21 195.83 244.47 C 195.26 244.32 194.69 244.18 194.11 244.04 C 192.44 242.39 191.65 240.86 188.98 241.22 C 186.70 241.07 184.76 242.54 185.68 245.00 C 187.70 246.91 191.08 247.29 193.56 248.49 C 195.82 249.40 197.02 252.10 195.88 254.34 C 194.53 258.53 188.96 259.05 185.48 257.50 C 183.35 256.52 183.05 254.57 182.17 252.64 C 182.77 252.69 183.37 252.75 183.97 252.81 C 184.91 253.69 185.85 254.61 186.87 255.38 C 188.71 255.74 190.66 255.71 192.53 255.79 C 192.96 254.49 193.33 253.18 193.64 251.85 C 191.16 249.29 186.41 249.52 183.81 247.14 C 181.91 244.53 183.06 240.42 186.16 239.34 Z" id="p40" />
<path d="M 199.66 237.63 C 203.27 238.58 201.65 242.81 202.06 245.56 C 203.71 244.48 204.89 243.23 207.04 243.51 C 209.36 243.66 210.93 245.70 211.22 247.90 C 211.60 251.16 211.40 254.52 211.40 257.80 L 208.60 257.77 C 208.22 253.53 210.05 248.10 206.21 245.17 C 205.08 245.97 203.27 246.52 202.53 247.73 C 201.65 250.77 202.24 254.23 201.70 257.36 L 199.66 258.64 C 199.36 251.68 199.38 244.60 199.66 237.63 Z" id="p41" />
<path d="M 258.66 239.15 C 261.87 239.16 265.40 238.82 268.53 239.63 C 271.09 240.74 271.08 242.87 271.61 245.24 C 270.76 246.09 269.91 246.95 269.05 247.81 C 270.17 248.87 271.26 249.84 272.17 251.09 C 273.15 253.95 270.88 257.40 267.85 257.63 C 264.84 258.05 261.69 257.88 258.65 257.85 C 258.64 251.61 258.64 245.38 258.66 239.15 Z M 261.33 241.16 C 261.32 243.07 261.30 244.99 261.30 246.91 C 263.74 246.84 266.18 246.75 268.62 246.61 C 268.66 245.29 268.75 243.91 268.63 242.59 C 266.78 241.01 263.63 241.45 261.33 241.16 Z M 261.34 249.12 C 261.31 251.29 261.30 253.46 261.29 255.63 C 263.73 255.62 266.17 255.60 268.62 255.58 C 269.19 253.88 270.08 252.56 269.45 250.72 C 267.55 248.81 263.82 249.43 261.34 249.12 Z" id="p42" />
<path d="M 261.33 241.16 C 263.63 241.45 266.78 241.01 268.63 242.59 C 268.75 243.91 268.66 245.29 268.62 246.61 C 266.18 246.75 263.74 246.84 261.30 246.91 C 261.30 244.99 261.32 243.07 261.33 241.16 Z" id="p43" />
<path d="M 239.16 243.28 C 240.38 246.23 241.21 249.30 241.93 252.41 C 242.40 252.60 242.88 252.79 243.35 252.98 C 244.12 249.88 244.90 246.79 245.73 243.71 C 246.41 243.65 247.09 243.59 247.77 243.53 C 246.82 248.30 245.43 252.93 244.21 257.64 C 243.36 257.74 242.51 257.84 241.66 257.93 C 240.59 254.49 239.62 251.03 238.62 247.57 C 237.26 250.91 236.26 254.36 235.37 257.85 C 234.55 257.81 233.73 257.77 232.91 257.74 C 231.77 252.81 229.38 247.67 229.58 242.65 C 232.94 245.91 232.91 250.31 234.19 254.63 C 235.32 251.46 236.04 248.16 237.19 245.00 C 237.49 243.85 238.22 243.73 239.16 243.28 Z" id="p44" />
<path d="M 287.50 248.49 C 288.33 252.33 287.29 256.85 283.00 257.87 C 279.75 258.77 277.82 257.06 275.39 255.30 C 275.38 251.87 274.11 246.94 277.55 244.74 C 281.30 242.00 286.39 244.14 287.50 248.49 Z M 281.20 246.06 C 275.73 245.61 276.31 257.32 281.98 255.64 C 286.46 255.19 286.42 245.57 281.20 246.06 Z" id="p45" />
<path d="M 303.50 249.97 C 303.91 253.17 302.45 255.23 300.70 257.67 C 298.37 257.72 296.06 257.69 293.73 257.60 C 290.63 253.86 289.37 248.22 293.61 244.83 C 297.73 241.75 303.52 244.99 303.50 249.97 Z M 294.60 255.68 C 296.27 255.65 297.98 255.67 299.63 255.42 C 301.34 253.52 301.66 250.55 300.82 248.19 C 300.27 246.60 298.26 246.09 296.92 245.32 C 295.78 246.16 294.66 247.01 293.68 248.04 C 292.76 250.82 293.70 253.09 294.60 255.68 Z" id="p46" />
<path d="M 328.62 243.79 C 329.63 244.21 330.59 244.77 331.55 245.28 C 333.53 244.31 335.38 243.65 337.53 243.18 C 338.55 244.59 340.39 246.16 340.39 248.00 C 340.64 251.27 340.47 254.58 340.46 257.85 C 339.55 257.76 338.64 257.67 337.72 257.57 C 337.75 253.99 337.73 250.41 337.57 246.84 C 336.57 246.34 335.58 245.85 334.59 245.35 C 333.82 246.22 332.66 247.03 332.25 248.13 C 331.76 251.33 332.00 254.67 331.92 257.90 C 331.16 257.89 330.40 257.88 329.65 257.88 C 329.64 254.10 329.63 250.33 329.44 246.55 C 327.76 246.40 326.08 246.28 324.40 246.19 C 323.41 250.05 323.47 253.93 323.51 257.88 C 322.78 257.88 322.05 257.88 321.33 257.88 C 321.24 253.10 321.27 248.33 321.41 243.56 C 324.03 245.09 325.93 243.79 328.62 243.79 Z" id="p47" />
<path d="M 354.80 247.12 C 355.43 250.80 355.07 254.71 355.04 258.43 C 354.11 257.89 353.18 257.34 352.25 256.78 C 350.17 257.71 348.46 258.70 346.14 257.72 C 343.24 256.91 342.74 251.81 345.49 250.54 C 347.93 249.65 350.71 249.55 353.27 249.11 C 352.15 247.39 351.30 246.55 349.47 245.56 C 347.62 246.41 345.76 247.17 343.85 247.87 L 344.87 246.10 C 346.53 242.12 354.06 242.77 354.80 247.12 Z M 346.41 252.52 C 346.37 253.52 346.35 254.52 346.34 255.52 C 348.02 255.57 349.70 255.60 351.38 255.63 C 351.94 254.17 352.48 252.72 353.00 251.25 C 350.77 251.54 348.56 251.87 346.41 252.52 Z" id="p48" />
<path d="M 361.75 244.27 C 363.43 243.97 365.11 243.67 366.79 243.38 C 365.84 246.01 363.61 246.26 361.65 247.83 C 361.16 251.07 361.36 254.46 361.37 257.73 C 360.43 257.80 359.49 257.87 358.55 257.94 C 358.48 253.15 358.48 248.36 358.57 243.57 C 359.63 243.82 360.68 244.07 361.75 244.27 Z" id="p49" />
<path d="M 391.48 244.55 C 392.37 245.34 392.69 246.75 393.22 247.80 C 391.19 247.05 389.09 246.06 386.96 245.68 C 386.12 246.45 385.30 247.25 384.51 248.08 C 386.80 249.04 389.18 249.79 391.44 250.80 C 392.65 251.40 393.90 252.49 393.51 253.99 C 393.28 257.26 389.79 258.31 386.99 258.11 C 384.49 257.98 383.48 256.27 381.90 254.66 C 382.64 254.61 383.38 254.56 384.12 254.52 C 386.20 255.56 388.25 255.74 390.55 255.79 C 390.55 254.82 390.54 253.86 390.54 252.89 C 387.77 251.98 385.08 250.97 382.59 249.45 C 382.59 248.46 382.60 247.47 382.61 246.48 C 383.62 245.54 384.62 244.56 385.68 243.68 C 387.57 243.61 389.96 243.22 391.48 244.55 Z" id="p50" />
<path d="M 227.43 249.98 C 227.84 253.12 226.34 255.22 224.66 257.65 C 222.33 257.70 220.02 257.69 217.69 257.61 C 216.05 255.18 214.51 253.10 214.89 249.97 C 215.10 247.21 216.47 244.89 219.20 244.01 C 223.10 242.42 227.47 245.90 227.43 249.98 Z M 218.53 255.60 C 220.28 255.63 222.02 255.65 223.77 255.67 C 224.71 253.12 225.85 250.96 224.76 248.20 C 224.28 246.62 222.25 246.09 220.95 245.33 C 219.70 246.33 217.36 247.29 217.32 249.12 C 216.89 251.48 217.70 253.45 218.53 255.60 Z" id="p51" />
<path d="M 220.95 245.33 C 222.25 246.09 224.28 246.62 224.76 248.20 C 225.85 250.96 224.71 253.12 223.77 255.67 C 222.02 255.65 220.28 255.63 218.53 255.60 C 217.70 253.45 216.89 251.48 217.32 249.12 C 217.36 247.29 219.70 246.33 220.95 245.33 Z" id="p52" />
<path d="M 281.20 246.06 C 286.42 245.57 286.46 255.19 281.98 255.64 C 276.31 257.32 275.73 245.61 281.20 246.06 Z" id="p53" />
<path d="M 296.92 245.32 C 298.26 246.09 300.27 246.60 300.82 248.19 C 301.66 250.55 301.34 253.52 299.63 255.42 C 297.98 255.67 296.27 255.65 294.60 255.68 C 293.70 253.09 292.76 250.82 293.68 248.04 C 294.66 247.01 295.78 246.16 296.92 245.32 Z" id="p54" />
<path d="M 261.34 249.12 C 263.82 249.43 267.55 248.81 269.45 250.72 C 270.08 252.56 269.19 253.88 268.62 255.58 C 266.17 255.60 263.73 255.62 261.29 255.63 C 261.30 253.46 261.31 251.29 261.34 249.12 Z" id="p55" />
<path d="M 353.00 251.25 C 352.48 252.72 351.94 254.17 351.38 255.63 C 349.70 255.60 348.02 255.57 346.34 255.52 C 346.35 254.52 346.37 253.52 346.41 252.52 C 348.56 251.87 350.77 251.54 353.00 251.25 Z" id="p56" />
</defs>
<g stroke-width="10pt">
<use stroke="#ffffff" xlink:href="#p0" />
<use stroke="#303a57" xlink:href="#p1" />
<use stroke="#303a57" xlink:href="#p2" />
<use stroke="#303a57" xlink:href="#p3" />
<use stroke="#ffffff" xlink:href="#p4" />
<use stroke="#f8f8f9" xlink:href="#p5" />
<use stroke="#fefefe" xlink:href="#p6" />
<use stroke="#ffffff" xlink:href="#p7" />
<use stroke="#ffffff" xlink:href="#p8" />
<use stroke="#68a2d6" xlink:href="#p9" />
<use stroke="#3c6af6" xlink:href="#p10" />
<use stroke="#3c6af6" xlink:href="#p11" />
<use stroke="#919bb1" xlink:href="#p12" />
<use stroke="#919bb1" xlink:href="#p13" />
<use stroke="#3c6af6" xlink:href="#p14" />
<use stroke="#3c6af6" xlink:href="#p15" />
<use stroke="#fefefe" xlink:href="#p16" />
<use stroke="#3c6af6" xlink:href="#p17" />
<use stroke="#3c6af6" xlink:href="#p18" />
<use stroke="#3c6af6" xlink:href="#p19" />
<use stroke="#3c6af6" xlink:href="#p20" />
<use stroke="#3c6af6" xlink:href="#p21" />
<use stroke="#3c6af6" xlink:href="#p22" />
<use stroke="#919bb1" xlink:href="#p23" />
<use stroke="#919bb1" xlink:href="#p24" />
<use stroke="#919bb1" xlink:href="#p25" />
<use stroke="#3c6af6" xlink:href="#p26" />
<use stroke="#919bb1" xlink:href="#p27" />
<use stroke="#fbfcff" xlink:href="#p28" />
<use stroke="#f9fbff" xlink:href="#p29" />
<use stroke="#ffffff" xlink:href="#p30" />
<use stroke="#ffffff" xlink:href="#p31" />
<use stroke="#3c6af6" xlink:href="#p32" />
<use stroke="#4873f6" xlink:href="#p33" />
<use stroke="#e1e8fd" xlink:href="#p34" />
<use stroke="#ffffff" xlink:href="#p35" />
<use stroke="#3c6af6" xlink:href="#p36" />
<use stroke="#ffffff" xlink:href="#p37" />
<use stroke="#686d7d" xlink:href="#p38" />
<use stroke="#252c44" xlink:href="#p39" />
<use stroke="#42485d" xlink:href="#p40" />
<use stroke="#4f5568" xlink:href="#p41" />
<use stroke="#383f55" xlink:href="#p42" />
<use stroke="#ffffff" xlink:href="#p43" />
<use stroke="#383f55" xlink:href="#p44" />
<use stroke="#4c5266" xlink:href="#p45" />
<use stroke="#30374e" xlink:href="#p46" />
<use stroke="#3d4459" xlink:href="#p47" />
<use stroke="#484f62" xlink:href="#p48" />
<use stroke="#5a6072" xlink:href="#p49" />
<use stroke="#43495e" xlink:href="#p50" />
<use stroke="#2c334a" xlink:href="#p51" />
<use stroke="#ffffff" xlink:href="#p52" />
<use stroke="#ffffff" xlink:href="#p53" />
<use stroke="#ffffff" xlink:href="#p54" />
<use stroke="#ffffff" xlink:href="#p55" />
<use stroke="#fbfbfc" xlink:href="#p56" />
</g>
<g>
<use fill="#ffffff" xlink:href="#p0" />
<use fill="#303a57" xlink:href="#p1" />
<use fill="#303a57" xlink:href="#p2" />
<use fill="#303a57" xlink:href="#p3" />
<use fill="#ffffff" xlink:href="#p4" />
<use fill="#f8f8f9" xlink:href="#p5" />
<use fill="#fefefe" xlink:href="#p6" />
<use fill="#ffffff" xlink:href="#p7" />
<use fill="#ffffff" xlink:href="#p8" />
<use fill="#68a2d6" xlink:href="#p9" />
<use fill="#3c6af6" xlink:href="#p10" />
<use fill="#3c6af6" xlink:href="#p11" />
<use fill="#919bb1" xlink:href="#p12" />
<use fill="#919bb1" xlink:href="#p13" />
<use fill="#3c6af6" xlink:href="#p14" />
<use fill="#3c6af6" xlink:href="#p15" />
<use fill="#fefefe" xlink:href="#p16" />
<use fill="#3c6af6" xlink:href="#p17" />
<use fill="#3c6af6" xlink:href="#p18" />
<use fill="#3c6af6" xlink:href="#p19" />
<use fill="#3c6af6" xlink:href="#p20" />
<use fill="#3c6af6" xlink:href="#p21" />
<use fill="#3c6af6" xlink:href="#p22" />
<use fill="#919bb1" xlink:href="#p23" />
<use fill="#919bb1" xlink:href="#p24" />
<use fill="#919bb1" xlink:href="#p25" />
<use fill="#3c6af6" xlink:href="#p26" />
<use fill="#919bb1" xlink:href="#p27" />
<use fill="#fbfcff" xlink:href="#p28" />
<use fill="#f9fbff" xlink:href="#p29" />
<use fill="#ffffff" xlink:href="#p30" />
<use fill="#ffffff" xlink:href="#p31" />
<use fill="#3c6af6" xlink:href="#p32" />
<use fill="#4873f6" xlink:href="#p33" />
<use fill="#e1e8fd" xlink:href="#p34" />
<use fill="#ffffff" xlink:href="#p35" />
<use fill="#3c6af6" xlink:href="#p36" />
<use fill="#ffffff" xlink:href="#p37" />
<use fill="#686d7d" xlink:href="#p38" />
<use fill="#252c44" xlink:href="#p39" />
<use fill="#42485d" xlink:href="#p40" />
<use fill="#4f5568" xlink:href="#p41" />
<use fill="#383f55" xlink:href="#p42" />
<use fill="#ffffff" xlink:href="#p43" />
<use fill="#383f55" xlink:href="#p44" />
<use fill="#4c5266" xlink:href="#p45" />
<use fill="#30374e" xlink:href="#p46" />
<use fill="#3d4459" xlink:href="#p47" />
<use fill="#484f62" xlink:href="#p48" />
<use fill="#5a6072" xlink:href="#p49" />
<use fill="#43495e" xlink:href="#p50" />
<use fill="#2c334a" xlink:href="#p51" />
<use fill="#ffffff" xlink:href="#p52" />
<use fill="#ffffff" xlink:href="#p53" />
<use fill="#ffffff" xlink:href="#p54" />
<use fill="#ffffff" xlink:href="#p55" />
<use fill="#fbfbfc" xlink:href="#p56" />
</g>
</svg>