<?xml version="1.0" encoding="UTF-8"?>
<svg width="18px" height="18px" viewBox="0 0 18 18" version="1.1" xmlns="http://www.w3.org/2000/svg" xmlns:xlink="http://www.w3.org/1999/xlink">
    <!-- Generator: Sketch 63.1 (92452) - https://sketch.com -->
    <title>Donkey</title>
    <desc>Created with Sketch.</desc>
    <g id="⭐️-[Symbols]-Icons" stroke="none" stroke-width="1" fill="none" fill-rule="evenodd">
        <g id="27)-Icon/donkey-fill-color" transform="translate(-3.000000, -3.000000)" fill-rule="nonzero">
            <g id="Donkey" transform="translate(3.000000, 3.000000)">
                <path d="M10.5582493,8.90546176 C8.55851558,8.90546176 6.55867989,8.90546176 4.55899717,8.90617564 C4.51596034,8.90617564 4.49418697,8.89643626 4.47741076,8.85049292 C4.28481586,8.31977337 4.00166006,7.8449915 3.58577337,7.45796601 C3.48190368,7.36128612 3.36579603,7.27307082 3.24295751,7.2023966 C3.06448725,7.09959773 2.91860057,7.13559773 2.77934278,7.28892918 C2.54549575,7.54653824 2.28707082,7.77375637 1.98397734,7.94906516 C1.63233994,8.15247025 1.25872521,8.19392635 0.866141643,8.11601133 C0.633518414,8.06996601 0.413694051,7.99312181 0.226759207,7.84132011 C0.0769461756,7.7196034 0.000764872521,7.56831161 0.0153484419,7.36811898 C0.0453314448,6.95569972 0.117943343,6.55220397 0.244912181,6.15905949 C0.265410765,6.09521813 0.291518414,6.03035694 0.328946176,5.97543909 C0.494464589,5.73175071 0.541784703,5.46246459 0.545864023,5.17227195 C0.549943343,4.8767762 0.58074221,4.58107649 0.61368272,4.28711048 C0.641371105,4.04112748 0.725813031,3.81248159 0.880674221,3.61361473 C0.923201133,3.55900283 0.959150142,3.49837394 0.991631728,3.43708215 C1.07597167,3.27788669 1.05547309,3.12970538 0.931002833,2.9993711 C0.774356941,2.83512748 0.620974504,2.66869122 0.503949008,2.47227195 C0.346487252,2.20803399 0.278872521,1.92314448 0.29682153,1.61673654 C0.317626062,1.25785836 0.394113314,0.912645892 0.549994334,0.587779037 C0.578651558,0.528016997 0.620515581,0.47172238 0.666305949,0.42317847 C0.76482153,0.318849858 0.885620397,0.327416431 0.960985836,0.449286119 C1.01146742,0.530923513 1.04624363,0.623371105 1.08030595,0.71388102 C1.23098584,1.11569405 1.38227762,1.5174051 1.60975071,1.88418697 C1.65436827,1.95603399 1.71112181,2.02176204 1.76920113,2.08376771 C1.82564873,2.14383569 1.89826062,2.18651558 1.98311048,2.15357507 C2.06887819,2.12048159 2.10579603,2.04124079 2.11726912,1.95567705 C2.12644759,1.88525779 2.12124646,1.81295184 2.12313314,1.74151275 C2.12813031,1.55488385 2.1252238,1.3673881 2.14235694,1.18188102 C2.15051558,1.09386969 2.18687252,1.00427762 2.22812465,0.924526912 C2.35759207,0.673903683 2.4948102,0.427410765 2.6303966,0.18 C2.64941643,0.145325779 2.67271955,0.112028329 2.69933711,0.0830651558 C2.76169972,0.0152974504 2.84185836,0.00780169972 2.90213031,0.0763852691 C2.96148442,0.144152975 3.02104249,0.219620397 3.05321813,0.30227762 C3.16886686,0.599660057 3.27579603,0.900815864 3.38027762,1.20243059 C3.4230085,1.32588102 3.45100283,1.45443059 3.48562606,1.58078754 C3.52534844,1.72555241 3.50128045,1.86873654 3.47405099,2.0118187 C3.4644136,2.06250425 3.4548272,2.11329178 3.44544476,2.16407932 C3.39307649,2.44494051 3.61483853,2.67440227 3.86173938,2.73156374 C4.34952408,2.8446119 4.83328045,2.98183003 5.27603966,3.22133711 C5.4966289,3.34070822 5.7053881,3.48929745 5.89879887,3.64966572 C6.35027762,4.02389235 6.79115014,4.41107082 7.23253258,4.79753541 C7.49804533,5.03015864 7.80307649,5.16559207 8.15119547,5.21663456 C8.56550142,5.27741643 8.98031728,5.27364306 9.39472521,5.23030028 C9.80372805,5.18756941 10.1989122,5.07982436 10.5852748,4.94209632 C11.1519433,4.73991501 11.7194278,4.54053824 12.2981813,4.37527479 C12.6740397,4.26793768 13.0495921,4.15866289 13.427949,4.06014731 C13.6043286,4.01440793 13.7856034,3.98366006 13.9665212,3.96132578 C14.2071501,3.93144476 14.4375807,3.98916714 14.658017,4.08166572 C14.8447479,4.15998867 15.0262266,4.25049858 15.2123456,4.33055524 C15.3196827,4.37680453 15.4313541,4.41336544 15.5410878,4.45390368 C15.6783059,4.50453824 15.7913541,4.58903116 15.8910425,4.69519547 C16.0284646,4.84123513 16.1751671,4.97870822 16.3072351,5.12918414 C16.3808159,5.21301416 16.4412918,5.31152975 16.4926912,5.41121813 C16.5925836,5.60534278 16.6908952,5.80109915 16.7731445,6.00307649 C16.8849688,6.27741076 16.9263229,6.5676034 16.8985326,6.86264023 C16.8595751,7.27607932 16.8143966,7.68926346 16.7625892,8.10137677 C16.7313314,8.34945042 16.6817167,8.59522946 16.6423003,8.84243626 C16.6344476,8.89133711 16.6129292,8.90668555 16.5632125,8.90668555 C14.5614901,8.90551275 12.5597677,8.90566572 10.5581473,8.90566572 C10.5582493,8.90566572 10.5582493,8.90566572 10.5582493,8.90546176 Z" id="Path" fill="#213E76"></path>
                <path d="M4.60764306,9.34786402 C4.63890085,9.34786402 4.66001133,9.34786402 4.6812238,9.34786402 C8.59721813,9.34786402 12.5133144,9.34786402 16.4293088,9.34786402 C16.5114561,9.34786402 16.5126799,9.34786402 16.5144646,9.42771671 C16.5210425,9.70337677 16.5969178,9.95603966 16.758255,10.181932 C16.9477904,10.4472408 17.1340113,10.7149462 17.3254334,10.9790822 C17.4138527,11.1010028 17.5240963,11.2030878 17.6593768,11.2716714 C17.8506969,11.3685552 17.9500793,11.5236204 17.9513031,11.7342663 C17.9529858,12.0086516 17.9479377,12.2840057 17.8831785,12.5524249 C17.8654334,12.6268215 17.819847,12.6971388 17.7753314,12.7613881 C17.7373938,12.815949 17.6830878,12.8090142 17.6617734,12.7456317 C17.6292918,12.6485439 17.6055807,12.5472238 17.5901813,12.4458527 C17.5753428,12.347847 17.5473484,12.2565212 17.4753484,12.1898244 C17.2960623,12.0234901 17.2509858,11.8128442 17.2592465,11.5814958 C17.2600623,11.5596714 17.2604193,11.537796 17.2616431,11.5159717 C17.2665382,11.4295411 17.2368612,11.3594278 17.1770992,11.2951785 C17.0135694,11.1190028 16.8527422,10.9401246 16.6937507,10.7594618 C16.6454618,10.7046969 16.6058924,10.6420283 16.5645892,10.5812975 C16.5230822,10.5204646 16.4740793,10.470136 16.4004476,10.4511161 C16.3269688,10.4324023 16.2664929,10.4570822 16.2400283,10.5278074 C16.2187139,10.5846629 16.2039773,10.6463116 16.1991841,10.7068895 C16.1710878,11.0704079 16.1947989,11.4292351 16.2923966,11.7828102 C16.4068215,12.1964023 16.5139037,12.612034 16.6243513,13.0267479 C16.6596884,13.1588159 16.7109858,13.2889972 16.727915,13.4233088 C16.7598867,13.6784703 16.7109858,13.9184873 16.5283343,14.1156714 C16.4367025,14.2148499 16.4044249,14.3350878 16.4025382,14.4663399 C16.3953484,14.9735524 16.3843343,15.4808159 16.3836204,15.9880283 C16.3832125,16.1489575 16.3485382,16.2942833 16.2701643,16.4320113 C16.1172918,16.7016034 15.9663059,16.9724193 15.8121586,17.2410935 C15.7045156,17.4288442 15.569745,17.5905892 15.3634844,17.6783966 C15.2199943,17.7395354 15.0670198,17.7581473 14.9143003,17.7612578 C14.7320567,17.7648272 14.5484873,17.760238 14.3670595,17.7428499 C14.1246459,17.7196487 13.9490822,17.5811048 13.8186969,17.382136 C13.7778527,17.3197734 13.7900397,17.25017 13.8284363,17.195711 C13.8930935,17.1038754 13.962187,17.0130595 14.0421416,16.9344816 C14.2446289,16.7353088 14.4531841,16.542204 14.6613314,16.3487932 C14.7416941,16.2742946 14.7772351,16.1884249 14.7632125,16.0784873 C14.7545439,16.0096487 14.7615297,15.9390765 14.7543399,15.86983 C14.729762,15.6326176 14.7896771,15.4122833 14.8833994,15.198272 C14.9119037,15.1327479 14.9385722,15.066102 14.9694731,15.0017507 C15.017762,14.9013484 15.0392805,14.7976827 15.0368839,14.6850425 C15.0260227,14.166051 15.0218414,13.6467025 15.0105722,13.1276091 C15.0056771,12.8977394 14.9477507,12.6773541 14.8372011,12.4762946 C14.7076317,12.2410708 14.5965722,11.9974334 14.4812805,11.7555297 C14.4185609,11.6242776 14.3266232,11.5069462 14.2466176,11.3838527 C14.2370312,11.3692181 14.2231105,11.3566742 14.2088839,11.345915 C14.1626856,11.3107819 14.1150595,11.2728952 14.052034,11.3003796 C13.9872238,11.3288839 13.9599943,11.3852295 13.9540283,11.4528442 C13.9430652,11.5762436 13.9871728,11.68817 14.0333201,11.7981076 C14.0962436,11.9481756 14.1732408,12.0929915 14.2287195,12.245762 C14.3120907,12.4748159 14.2934788,12.7027989 14.1611048,12.9093654 C14.1110312,12.9875354 14.0303626,13.0465836 13.9614221,13.1121586 C13.7465949,13.3163286 13.5316657,13.5203966 13.3147479,13.72217 C13.2552918,13.7774448 13.1909405,13.8287422 13.1242436,13.8748385 C13.0277167,13.9413824 12.9792238,14.0305156 12.9785609,14.1462153 C12.9775411,14.3649178 12.9636204,14.5848442 12.9808555,14.8023229 C12.9995694,15.0409632 12.9099263,15.2233088 12.7474164,15.3823513 C12.7146289,15.4143229 12.684085,15.4492521 12.6476261,15.4764816 C12.3925666,15.6663229 12.233728,15.9287252 12.0923796,16.2050992 C12.0020737,16.3821926 11.9112068,16.5590312 11.8176884,16.734136 C11.7896941,16.7866062 11.7536431,16.8350482 11.7174901,16.8823173 C11.6190765,17.0108669 11.4933314,17.094034 11.3283739,17.1114731 C11.0504193,17.1408442 10.7730255,17.1556827 10.4967535,17.0950538 C10.349949,17.0627762 10.2279773,16.9877167 10.127881,16.877728 C10.0425212,16.7840057 10.0237054,16.6711615 10.0826516,16.5623966 C10.1572521,16.4249745 10.2415921,16.2915297 10.3344476,16.1656317 C10.7403909,15.6152805 11.1525042,15.0693144 11.5587535,14.5190652 C11.6396261,14.4093314 11.7086176,14.2899093 11.7751615,14.1707932 C11.8241643,14.0830368 11.8429802,13.9850312 11.8363003,13.8827932 C11.8287535,13.7668895 11.8489462,13.6530255 11.9120737,13.5565496 C12.119813,13.2385666 12.0829972,12.917779 11.9269122,12.5979603 C11.7265156,12.1874278 11.5185722,11.7804136 11.3141983,11.3716657 C11.2714674,11.286102 11.231745,11.1990595 11.1507705,11.1407252 C11.0553654,11.0720907 10.9473144,11.0439433 10.8320737,11.0381303 C10.6044986,11.0269632 10.3871728,11.0845326 10.1672975,11.1309348 C9.92269122,11.1825382 9.6768102,11.2334278 9.42894051,11.2655014 C8.9789915,11.3235807 8.52603399,11.3510652 8.07169972,11.3494334 C7.86054391,11.3489235 7.70909915,11.4401473 7.59028895,11.6231048 C7.28474788,12.0942663 7.09449858,12.6100453 6.97589235,13.1527479 C6.90317847,13.4852125 6.89410198,13.8251218 6.96752975,14.160238 C6.99113881,14.2671161 7.0547762,14.3646119 7.08613598,14.4703683 C7.13870822,14.6491445 7.18521246,14.8301133 7.22478187,15.012051 C7.25078754,15.1302493 7.29979037,15.2333541 7.39519547,15.3040793 C7.52884419,15.4032578 7.67095751,15.4915241 7.8089915,15.5849405 C7.85671955,15.6171161 7.90628329,15.6472011 7.94962606,15.6846289 C8.01795467,15.7436771 8.03060057,15.8150142 7.98567705,15.8931841 C7.95819263,15.9410142 7.92341643,15.9855807 7.88619263,16.0263229 C7.58065156,16.3611331 7.2737847,16.6950765 6.96656091,17.0283059 C6.93856657,17.0589008 6.90710482,17.0875581 6.87314448,17.1112691 C6.77983003,17.1760793 6.69375637,17.1626686 6.62109348,17.0744023 C6.59967705,17.0481926 6.58335977,17.0175467 6.56005666,16.9934278 C6.53139943,16.9637507 6.50207932,16.9305042 6.46582436,16.913779 C6.34033428,16.8552408 6.25716714,16.8951671 6.22611331,17.0309065 C6.2111728,17.0960227 6.21147875,17.1648612 6.20739943,17.23217 C6.20413598,17.2836714 6.2069915,17.3357337 6.20332011,17.3871331 C6.19383569,17.5111445 6.14187535,17.56183 6.01669122,17.5631048 C5.81583569,17.5653994 5.6148272,17.5641756 5.41386969,17.5641756 C5.09547875,17.5641756 4.77708782,17.5641756 4.45879887,17.5641756 C4.45094618,17.5641756 4.44288952,17.5641756 4.43488385,17.5641756 C4.21250992,17.5624929 4.10262323,17.4234391 4.16748442,17.2097337 C4.20006799,17.1025496 4.24754108,16.9972011 4.30460057,16.9006232 C4.49092351,16.5853938 4.69279887,16.2798527 4.92776771,15.9983286 C5.07319547,15.8240397 5.14366572,15.6289462 5.14147309,15.4008612 C5.1395864,15.2084703 5.13729178,15.0131218 5.19695184,14.8270028 C5.23550142,14.7063059 5.28669688,14.5891785 5.33687252,14.4726629 C5.42860623,14.2590595 5.42891218,14.0362266 5.41616431,13.8100793 C5.38776204,13.3074561 5.36201133,12.8048839 5.33875921,12.3022606 C5.32769405,12.0610708 5.26120113,11.8339547 5.19144476,11.6051048 C5.10348442,11.3163909 5.03092351,11.0228839 4.95622096,10.7302946 C4.86071388,10.3569348 4.76989802,9.98235127 4.67658357,9.60848159 C4.655983,9.52623229 4.63324079,9.44428895 4.60764306,9.34786402 Z" id="Path" fill="#B62327"></path>
                <g id="Group" transform="translate(4.895184, 6.067989)" fill="#FFFFFF">
                    <path d="M7.24614731,0.037631728 C7.27312181,0.119473088 7.30060623,0.201365439 7.32712181,0.283359773 C7.38311048,0.457342776 7.43904816,0.631121813 7.49386402,0.80525779 C7.50569405,0.84294051 7.52532578,0.85823796 7.56678187,0.857830028 C7.81347875,0.855076487 8.06007365,0.85517847 8.30677054,0.854413598 C8.32579037,0.854260623 8.3448102,0.854413598 8.36393201,0.854413598 C8.3658187,0.859206799 8.3676034,0.864 8.3693881,0.86874221 C8.32788102,0.899694051 8.28673088,0.931053824 8.24491785,0.961444759 C8.07440227,1.08520113 7.90470255,1.21028329 7.73209632,1.33123513 C7.68967139,1.36091218 7.68319547,1.3883966 7.69895184,1.43484986 C7.77921246,1.67165439 7.85692351,1.90912181 7.93519547,2.14653824 C7.93937677,2.15928612 7.94019263,2.17310482 7.94564873,2.20420963 C7.91505382,2.18116147 7.89593201,2.16667989 7.87660623,2.15250425 C7.67743343,2.00722946 7.47754674,1.86312748 7.27964873,1.71596601 C7.24528045,1.69047025 7.22416997,1.70138244 7.19627762,1.72183003 C6.98991501,1.87383569 6.78288952,2.02522946 6.57591501,2.17672521 C6.56653258,2.18366006 6.55730312,2.19054391 6.53649858,2.19253258 C6.55184703,2.14174504 6.56617564,2.09054958 6.58279887,2.04022096 C6.6510255,1.83090085 6.71843626,1.6211728 6.78987535,1.4129745 C6.80471388,1.36958074 6.7812068,1.35515014 6.7554051,1.33648725 C6.55062323,1.18876487 6.34579037,1.04114448 6.14111048,0.893422096 C6.13172805,0.886640227 6.1230085,0.879144476 6.0989915,0.860022663 C6.13703116,0.858339943 6.15885552,0.856453258 6.18078187,0.856453258 C6.4253881,0.856300283 6.67009632,0.855484419 6.91470255,0.857167139 C6.95503683,0.857524079 6.97375071,0.846407932 6.9863966,0.805665722 C7.06645326,0.550351275 7.14992635,0.29615864 7.23217564,0.0415580737 C7.23681586,0.0402832861 7.24160907,0.0389065156 7.24614731,0.037631728 Z" id="Path"></path>
                    <path d="M1.860017,2.20120113 C1.70423796,2.08789802 1.55508782,1.97923513 1.40598867,1.87047025 C1.33689518,1.82014164 1.26693484,1.77088385 1.19932011,1.71846459 C1.16892918,1.69480453 1.14771671,1.6961813 1.11645892,1.71953541 C0.912186969,1.87128612 0.706232295,2.02064023 0.500685552,2.17075921 C0.488753541,2.17947875 0.475495751,2.18646459 0.449490085,2.20237394 C0.493393768,2.06597167 0.532249292,1.94369405 0.572073654,1.82192635 C0.615773371,1.68797167 0.659830028,1.55416997 0.705008499,1.42072521 C0.716838527,1.38559207 0.710464589,1.36310482 0.678441926,1.3404136 C0.480747875,1.19993201 0.284532578,1.0572068 0.0880623229,0.915144476 C0.0681246459,0.900815864 0.0485439093,0.885977337 0.0144815864,0.860634561 C0.0505325779,0.858849858 0.0674617564,0.857320113 0.0844929178,0.85721813 C0.329201133,0.856963173 0.573909348,0.855076487 0.818515581,0.858339943 C0.873586402,0.859002833 0.89490085,0.837484419 0.909943343,0.789195467 C0.984339943,0.550504249 1.06113314,0.312526912 1.1376204,0.0744475921 C1.14149575,0.0626175637 1.15036827,0.0525212465 1.16301416,0.0315127479 C1.2168102,0.198305949 1.26688385,0.354186969 1.31726346,0.509864023 C1.34913314,0.608073654 1.38411331,0.705365439 1.41236261,0.804543909 C1.4250085,0.848753541 1.44871955,0.858135977 1.49002266,0.857779037 C1.7346289,0.855586402 1.97933711,0.855382436 2.22394334,0.854566572 C2.2433711,0.854566572 2.26269688,0.854566572 2.30094051,0.854566572 C2.27554674,0.876288952 2.26407365,0.887507082 2.25132578,0.896736544 C2.05016431,1.04267422 1.84956374,1.18907082 1.64728045,1.33342776 C1.60924079,1.36055524 1.5989915,1.38329745 1.61541076,1.4315864 C1.69985269,1.67741643 1.77904249,1.92513314 1.85981303,2.17213598 C1.86149575,2.17728612 1.860017,2.18350708 1.860017,2.20120113 Z" id="Path"></path>
                    <path d="M3.47716147,2.18896317 C3.50796034,2.0934051 3.5388102,1.99789802 3.56966006,1.90249292 C3.62172238,1.74202266 3.67174504,1.58083853 3.7272238,1.42154108 C3.74155241,1.38039093 3.732017,1.36162606 3.69973938,1.3385779 C3.49735411,1.19432295 3.2963966,1.04802833 3.09513314,0.902396601 C3.08090652,0.892147309 3.06744476,0.881184136 3.03975637,0.859869688 C3.07580737,0.858339943 3.09610198,0.856657224 3.11624363,0.856657224 C3.35906516,0.856657224 3.60173371,0.855790368 3.84455524,0.857983003 C3.89136544,0.858339943 3.91446459,0.846509915 3.92960907,0.798220963 C4.0085949,0.544691218 4.09216997,0.292538244 4.18655524,0.036611898 C4.20786969,0.100147309 4.22989802,0.163631728 4.2503966,0.227473088 C4.31306516,0.421903683 4.37568272,0.616538244 4.43712748,0.811427762 C4.44885552,0.84870255 4.47139377,0.857932011 4.5084136,0.857575071 C4.75511048,0.855280453 5.00180737,0.855127479 5.24850425,0.854362606 C5.26762606,0.854209632 5.28664589,0.854362606 5.3249915,0.854362606 C5.2985779,0.877053824 5.28695184,0.888526912 5.274,0.89796034 C5.07110482,1.04496884 4.86887252,1.19258924 4.66470255,1.33766006 C4.62905949,1.36310482 4.62319547,1.3847762 4.63721813,1.42607932 C4.7190085,1.66660623 4.79738244,1.90825496 4.87641926,2.14964873 C4.88049858,2.16198867 4.8810085,2.17550142 4.8845779,2.1971728 C4.86576204,2.18575071 4.853983,2.17963173 4.84342776,2.17188102 C4.63788102,2.02186402 4.4316204,1.87245892 4.22745042,1.72050425 C4.19068555,1.69301983 4.16651558,1.70010765 4.13372805,1.72443059 C3.9198187,1.88235127 3.70448159,2.03869122 3.48975637,2.19554108 C3.48552408,2.19345042 3.48124079,2.19115581 3.47716147,2.18896317 Z" id="Path"></path>
                    <path d="M10.1945269,0.0223342776 C10.2260907,0.118504249 10.2535751,0.200600567 10.2800907,0.282747875 C10.3360793,0.456475921 10.392221,0.630101983 10.4468329,0.804390935 C10.4596827,0.84533711 10.4814051,0.858339943 10.5249008,0.857830028 C10.7713938,0.854668555 11.0182946,0.855076487 11.2647875,0.854260623 C11.2833994,0.854260623 11.3020113,0.854260623 11.3245496,0.868232295 C11.2887025,0.894849858 11.2532635,0.921824363 11.2170085,0.947932011 C11.040017,1.07632861 10.8637394,1.20589802 10.6847082,1.33149008 C10.6425892,1.36106516 10.6351955,1.3871728 10.6514618,1.4345949 C10.7324363,1.67313314 10.8101983,1.9127932 10.8887762,2.15214731 C10.8926516,2.16407932 10.8928555,2.1773881 10.8966289,2.20176204 C10.7829178,2.11915581 10.6788952,2.04389235 10.5751275,1.96822096 C10.4627932,1.88622663 10.3494391,1.8054051 10.2387875,1.72086119 C10.2056431,1.69556941 10.1838187,1.69602833 10.1506232,1.72050425 C9.94624929,1.87210198 9.7403966,2.02145609 9.53484986,2.17172805 C9.52398867,2.17973371 9.51282153,2.18763739 9.49013031,2.19028895 C9.49512748,2.17386969 9.49986969,2.15734844 9.5051728,2.14098017 C9.58283286,1.90111615 9.65906516,1.66089518 9.73963173,1.42215297 C9.75355241,1.38105382 9.74422096,1.36126912 9.71265722,1.33873088 C9.50568272,1.19070255 9.2994221,1.04150142 9.09311048,0.892657224 C9.08383003,0.885977337 9.07516147,0.878379603 9.06832861,0.856606232 C9.08836827,0.856606232 9.10835694,0.856606232 9.12829462,0.856606232 C9.3749915,0.856606232 9.62168839,0.855586402 9.86838527,0.857473088 C9.90999433,0.857830028 9.92733144,0.843807365 9.93941643,0.804849858 C10.014017,0.566260623 10.0913711,0.328589235 10.1679603,0.090611898 C10.1737224,0.072713881 10.1815751,0.0552747875 10.1945269,0.0223342776 Z" id="Path"></path>
                </g>
            </g>
        </g>
    </g>
</svg>