<?xml version="1.0" encoding="UTF-8"?>
<svg width="18px" height="16px" viewBox="0 0 18 16" version="1.1" xmlns="http://www.w3.org/2000/svg" xmlns:xlink="http://www.w3.org/1999/xlink">
    <!-- Generator: Sketch 63.1 (92452) - https://sketch.com -->
    <title>Elephant</title>
    <desc>Created with Sketch.</desc>
    <g id="⭐️-[Symbols]-Icons" stroke="none" stroke-width="1" fill="none" fill-rule="evenodd">
        <g id="27)-Icon/elephant-fill-color" transform="translate(-3.000000, -4.000000)" fill-rule="nonzero">
            <g id="Elephant" transform="translate(3.000000, 4.000000)">
                <path d="M12.4094368,10.8569842 C12.4094368,10.8979579 12.4094368,10.9341947 12.4094368,10.9703842 C12.4095789,12.4082053 12.4095789,13.8460263 12.4106684,15.2837526 C12.4107158,15.3264789 12.3995842,15.3405 12.3552,15.3404526 C11.1910737,15.3393632 10.0269,15.3395526 8.86277368,15.3393632 C8.75022632,15.3393632 8.75027368,15.3389368 8.75022632,15.2266737 C8.75013158,14.1688421 8.75008421,13.1110105 8.74989474,12.0531789 C8.74989474,11.9772474 8.74961053,11.9771526 8.67202105,11.9772 C7.0983,11.9772947 5.52462632,11.9777211 3.95090526,11.9763474 C3.89614737,11.9763474 3.88444737,11.9938263 3.88454211,12.0448895 C3.88582105,13.1236105 3.88553684,14.2024263 3.88558421,15.2811947 C3.88558421,15.3527211 3.88582105,15.3528632 3.8142,15.3528632 C2.59252105,15.3527684 1.37088947,15.3523895 0.149210526,15.3538579 C0.0955421053,15.3538579 0.0869684211,15.3344368 0.0869684211,15.2868316 C0.0879631579,12.9027316 0.0878210526,10.5185842 0.0877736842,8.13457895 C0.0877736842,7.83137368 0.0875842105,7.52807368 0.0874421053,7.22482105 C0.0874421053,7.1523 0.0873,7.15173158 0.158068421,7.15173158 C2.16753158,7.15158947 4.1769,7.15144737 6.18631579,7.15144737 C9.18213158,7.15144737 12.1779,7.15144737 15.1736684,7.15144737 C15.2406,7.15144737 15.2404579,7.15144737 15.2404579,7.21809474 C15.2403158,9.19089474 15.2402684,11.1636947 15.2401263,13.1364947 C15.2400316,13.2451579 15.2475632,13.3517368 15.2940789,13.4529632 C15.4588263,13.8117789 15.9383842,13.8691895 16.1839895,13.5594947 C16.3016526,13.4111842 16.3370368,13.2392842 16.3366579,13.0552579 C16.3356632,12.6248684 16.3360895,12.1942895 16.3359474,11.7638526 C16.3359474,11.7481737 16.3379842,11.7322579 16.3358053,11.7168632 C16.3297895,11.6746105 16.3480737,11.6635263 16.3888105,11.6636211 C16.9011474,11.6646632 17.4135316,11.6646158 17.9258684,11.6636211 C17.9648053,11.6635263 17.9820474,11.6722421 17.9818594,11.7153947 C17.9802,12.4090105 17.9847474,13.1026263 17.9769316,13.7962421 C17.9731421,14.1488526 17.8586053,14.4667895 17.6113895,14.7271737 C17.4236684,14.9248895 17.1915632,15.0516474 16.9353947,15.1380947 C16.587,15.2556158 16.2270947,15.3004263 15.8613158,15.3049263 C15.2853158,15.3119368 14.7477316,15.1658053 14.2517368,14.8770474 C13.8235737,14.6277947 13.5572684,14.2548632 13.4429211,13.7710895 C13.3725789,13.4736632 13.3321263,13.1722579 13.2993947,12.8691474 C13.2653842,12.5541 13.2345,12.2384842 13.1900211,11.9247158 C13.1580947,11.6991 13.1047105,11.4767053 12.9972316,11.2718842 C12.8863421,11.061 12.7252895,10.9125474 12.4855105,10.8627632 C12.4701158,10.8596368 12.4546737,10.8572211 12.4390895,10.8553263 C12.4324579,10.8546158 12.4255895,10.8559895 12.4094368,10.8569842 Z" id="Path" fill="#B62327"></path>
                <path d="M7.61243684,6.65777368 C5.11687895,6.65777368 2.62136842,6.65777368 0.125763158,6.65777368 C0.0509684211,6.65777368 0.0509210526,6.65763158 0.0507789474,6.58373684 C0.0499263158,6.03478421 0.0492157895,5.48587895 0.0481736842,4.93692632 C0.0473684211,4.51875789 0.0522473684,4.1004 0.0425368421,3.68242105 C0.0383210526,3.50104737 0.106957895,3.34601053 0.1746,3.18936316 C0.417268421,2.62743158 0.800147368,2.17231579 1.26454737,1.78133684 C1.79066842,1.33839474 2.38585263,1.01325789 3.02077895,0.756663158 C3.48953684,0.567189474 3.97160526,0.418547368 4.46561053,0.313957895 C4.81594737,0.239873684 5.16974211,0.179857895 5.5242,0.128889474 C6.25869474,0.0233526316 6.99863684,-0.0100421053 7.73966842,0.00966315789 C8.17806316,0.0213631579 8.61650526,0.0521052632 9.05338421,0.0911842105 C9.37193684,0.1197 9.68982632,0.165410526 10.0048263,0.2214 C10.9867737,0.395857895 11.9317263,0.684947368 12.8121158,1.16351053 C13.4529158,1.51176316 14.0261211,1.94622632 14.5028368,2.50166842 C14.7626526,2.80430526 14.9826789,3.1338 15.1562842,3.49332632 C15.1686,3.51885789 15.1760368,3.54955263 15.1760368,3.57778421 C15.1768421,4.58336842 15.1758947,5.58881053 15.1774584,6.59434737 C15.1774584,6.65488421 15.1495579,6.65625789 15.1042263,6.65625789 C12.8439474,6.65554737 10.5835737,6.65554737 8.32334211,6.65545263 C8.08635789,6.65545263 7.84937368,6.65545263 7.61238947,6.65545263 C7.61243684,6.65621053 7.61243684,6.65696842 7.61243684,6.65777368 Z" id="Path" fill="#213E76"></path>
                <g id="Group" transform="translate(1.705263, 2.415789)" fill="#FFFFFF">
                    <path d="M5.01693158,0.054 C5.1462,0.147789474 5.27546842,0.241626316 5.40478421,0.335273684 C5.56271053,0.449668421 5.72111053,0.5634 5.87827895,0.678789474 C5.90684211,0.699678947 5.9274,0.700152632 5.95653158,0.678505263 C6.23619474,0.471031579 6.51694737,0.265026316 6.79755789,0.0586421053 C6.80513684,0.0530526316 6.81361579,0.0485526316 6.83208947,0.0370894737 C6.79556842,0.150157895 6.76283684,0.251763158 6.72991579,0.353368421 C6.65104737,0.596226316 6.57137368,0.8388 6.49511053,1.08246316 C6.49027895,1.09790526 6.50600526,1.12907368 6.52144737,1.14034737 C6.71125263,1.27899474 6.90266842,1.41536842 7.0938,1.55207368 C7.18588421,1.61796316 7.27834737,1.68318947 7.37038421,1.74903158 C7.3782,1.75466842 7.38402632,1.76319474 7.39667368,1.77650526 C7.37786842,1.77778421 7.36664211,1.77925263 7.35551053,1.77925263 C7.01057368,1.77991579 6.66563684,1.78076842 6.32065263,1.78034211 C6.28389474,1.78024737 6.26688947,1.79081053 6.25495263,1.82898947 C6.14922632,2.16724737 6.04042105,2.50446316 5.92967368,2.85096316 C5.92005789,2.83343684 5.91214737,2.82315789 5.90840526,2.81155263 C5.80381579,2.49105789 5.69856316,2.17084737 5.59648421,1.84954737 C5.58009474,1.79810526 5.55759474,1.78043684 5.50174737,1.78128947 C5.16206842,1.78631053 4.82234211,1.78673684 4.48261579,1.78853684 C4.47465789,1.78858421 4.4667,1.78645263 4.45196842,1.78436842 C4.46125263,1.77347368 4.46532632,1.76627368 4.47138947,1.76182105 C4.75015263,1.55894211 5.02877368,1.35582632 5.30834211,1.15408421 C5.34287368,1.12921579 5.35286842,1.10870526 5.33752105,1.06389474 C5.22677368,0.740036842 5.12005263,0.414757895 5.01224211,0.0899052632 C5.00921053,0.0806210526 5.00816842,0.0705789474 5.00622632,0.0609157895 C5.00973158,0.0585947368 5.01333158,0.0562736842 5.01693158,0.054 Z" id="Path"></path>
                    <path d="M9.38861053,0.0460421053 C9.57917368,0.184026316 9.76367368,0.317652632 9.94817368,0.451231579 C10.0525737,0.526784211 10.1581579,0.600678947 10.2609947,0.678363158 C10.2925895,0.702284211 10.3129579,0.698210526 10.3426579,0.676184211 C10.6153579,0.473873684 10.8890526,0.273031579 11.1626053,0.0719052632 C11.1748737,0.0629526316 11.1879947,0.0552789474 11.2140474,0.0383210526 C11.1861474,0.126094737 11.1628895,0.199705263 11.1391105,0.273221053 C11.0530421,0.539194737 10.9674474,0.805405263 10.8798632,1.07095263 C10.8668842,1.11012632 10.8844579,1.12784211 10.9121684,1.14759474 C11.1870474,1.34388947 11.4614526,1.5408 11.7359526,1.73756842 C11.7492632,1.74708947 11.7622421,1.75736842 11.7863053,1.77565263 C11.7588316,1.77754737 11.7459,1.77920526 11.7329211,1.77920526 C11.3931947,1.77996316 11.0534684,1.78128947 10.7137421,1.78005789 C10.6706842,1.77986842 10.6488474,1.79043158 10.6355368,1.83358421 C10.5584211,2.0826 10.4784632,2.33062105 10.3995,2.57902105 C10.3717421,2.66622632 10.3439842,2.75343158 10.3031053,2.84224737 C10.2823105,2.77991053 10.2611842,2.71762105 10.2408158,2.65509474 C10.1502947,2.37761053 10.0595368,2.10017368 9.97015263,1.82231053 C9.95826316,1.78555263 9.93495789,1.78209474 9.90232105,1.78237895 C9.55747895,1.78512632 9.21254211,1.78673684 8.8677,1.78853684 C8.85931579,1.78858421 8.85097895,1.78777895 8.82738947,1.78668947 C8.84927368,1.76883158 8.86097368,1.75831579 8.87357368,1.74912632 C9.14641579,1.54998947 9.41864211,1.35 9.69285789,1.15285263 C9.73023158,1.12594737 9.73406842,1.10226316 9.72047368,1.06204737 C9.6084,0.731463158 9.49812632,0.400263158 9.38747368,0.0692526316 C9.38600526,0.0648473684 9.38775789,0.0593052632 9.38861053,0.0460421053 Z" id="Path"></path>
                    <path d="M0.585473684,0.0468947368 C0.6993,0.129363158 0.805926316,0.206715789 0.9126,0.283926316 C1.08611053,0.409594737 1.26094737,0.533510526 1.43232632,0.661926316 C1.47893684,0.696836842 1.51001053,0.699063158 1.55808947,0.662921053 C1.82808947,0.4599 2.10097895,0.260763158 2.37292105,0.0603947368 C2.3796,0.0555157895 2.38746316,0.0522473684 2.40825789,0.0405947368 C2.38400526,0.118089474 2.36415789,0.183315789 2.34326842,0.248210526 C2.25350526,0.525931579 2.16431053,0.803889474 2.07251053,1.08099474 C2.06156842,1.11415263 2.07762632,1.12466842 2.09804211,1.13930526 C2.37533684,1.33820526 2.65253684,1.53734211 2.92968947,1.73652632 C2.94333158,1.74633158 2.95645263,1.75694211 2.96720526,1.7793 C2.94754737,1.7793 2.92793684,1.7793 2.90823158,1.7793 C2.57196316,1.77982105 2.23569474,1.78100526 1.89942632,1.77986842 C1.86058421,1.77972632 1.84367368,1.79327368 1.83268421,1.82837368 C1.73032105,2.15497895 1.62686842,2.48120526 1.52341579,2.80738421 C1.51943684,2.81993684 1.51223684,2.8314 1.50172105,2.85356842 C1.45586842,2.71397368 1.41337895,2.58446842 1.37107895,2.45501053 C1.30310526,2.24692105 1.23470526,2.03906842 1.1682,1.83050526 C1.15612105,1.79261053 1.13660526,1.78138421 1.0971,1.78181053 C0.759126316,1.78526842 0.421105263,1.78631053 0.0832263158,1.78796842 C0.0680684211,1.78801579 0.0528631579,1.78664211 0.0221210526,1.78512632 C0.0612473684,1.75561579 0.0888157895,1.73425263 0.117094737,1.71369474 C0.373168421,1.52696842 0.628910526,1.33972105 0.886073684,1.15460526 C0.924536842,1.12689474 0.928136842,1.10212105 0.913357895,1.05858947 C0.802326316,0.731226316 0.694421053,0.402773684 0.585757895,0.0746526316 C0.584194737,0.0702 0.585473684,0.0647052632 0.585473684,0.0468947368 Z" id="Path"></path>
                </g>
            </g>
        </g>
    </g>
</svg>