
<?xml version="1.0" encoding="UTF-8"?>
<svg width="180px" height="50px" viewBox="0 0 180 50" version="1.1" xmlns="http://www.w3.org/2000/svg" xmlns:xlink="http://www.w3.org/1999/xlink">
    <!-- Generator: sketchtool 63.1 (101010) - https://sketch.com -->
    <title>F9406701-5947-452A-937A-47F3116FAD49@1.00x</title>
    <desc>Created with sketchtool.</desc>
    <defs>
        <linearGradient x1="50%" y1="0%" x2="50%" y2="100%" id="linearGradient-1">
            <stop stop-color="#5DB1D7" offset="0%"></stop>
            <stop stop-color="#4A88E2" offset="100%"></stop>
        </linearGradient>
    </defs>
    <g id="Onboarding/SignUp" stroke="none" stroke-width="1" fill="none" fill-rule="evenodd">
        <g id="Error-Handling" transform="translate(-98.000000, -60.000000)">
            <g id="Logo-Large" transform="translate(98.000000, 60.000000)">
                <g id="Group-2" transform="translate(-0.000000, 0.120210)">
                    <g id="Group" fill="#2E3A59" fill-rule="nonzero">
                        <path d="M17.6241415,49.0249234 C10.2682551,47.1201615 3.69180047,41.6201615 1.1830048,35.2868282 C0.306144181,33.0725425 -0.18100061,29.9534949 0.0625717856,28.096352 C0.33050142,26.143971 1.52400616,23.9773044 2.83929709,23.0487329 C3.78922943,22.4058758 4.08151631,22.3344472 5.64037963,22.3582568 C7.71074499,22.3582568 9.14782212,22.9296853 10.657971,24.2392091 C12.0950481,25.5011139 12.0219764,26.1201615 10.3900413,26.643971 C8.53889114,27.2153996 7.88124567,27.7630187 7.101814,29.3106377 C6.49288302,30.5249234 6.4198113,30.9058758 6.44416854,32.9296853 C6.51724026,37.4773044 8.58760562,41.5725425 11.9001902,43.643971 C16.869067,46.7630187 26.1248181,44.3344472 29.8514757,38.9534949 C31.6295542,36.3582568 31.9705555,35.1677806 31.9705555,31.6201615 C31.9705555,28.9058758 31.8731266,28.2868282 31.3129101,26.6201615 C29.5348316,21.3344472 26.0273891,18.2392091 21.643086,17.9773044 C20.1329371,17.8820663 19.6701496,17.9534949 19.5727206,18.1915901 C19.4996489,18.3820663 19.6214351,19.8582568 19.816293,21.5011139 C20.3521523,25.5725425 20.6200819,38.5011139 20.1816516,39.0011139 C19.4752917,39.8344472 17.672856,39.2630187 15.3832754,37.4773044 C13.7756976,36.2630187 13.4834108,35.3820663 13.1180522,31.1677806 C12.5091212,23.6677806 10.2682551,14.6915901 6.88259885,6.21539962 C5.46987896,2.69159009 5.32373552,1.78682819 6.00573823,1.19159009 C6.76081265,0.524923425 8.53889114,0.0249234249 10.3169696,0.00111390113 C12.289906,-0.0226956227 13.5564825,0.334447234 14.3359141,1.14397104 C14.7987017,1.62016152 16.357565,6.26301866 18.184358,12.5725425 L18.4522876,13.5249234 L20.6200819,14.0249234 C24.8338844,15.0249234 28.7066855,17.1915901 31.9949128,20.4058758 C36.4279304,24.7392091 38.6931537,29.7630187 38.6931537,35.2153996 C38.6931537,39.2153996 37.5727206,42.0249234 34.8934243,44.8344472 C33.1153458,46.6677806 30.996266,47.9534949 28.3413269,48.8106377 C26.7337491,49.3106377 25.808174,49.4296853 23.1045204,49.5011139 C20.2303661,49.596352 19.5483634,49.5249234 17.6241415,49.0249234 Z" id="Path-Copy-3" transform="translate(19.346577, 24.768632) scale(-1, 1) rotate(-180.000000) translate(-19.346577, -24.768632) "></path>
                        <path d="M90.7445745,48.8428086 C90.0138573,48.0809039 89.477998,46.4142372 87.6512051,39.4142372 C85.0693377,29.3904277 83.3399737,19.9142372 82.7310427,12.3428086 L82.4387558,8.72376102 L81.7080386,8.55709436 C80.7581063,8.36661817 79.1261712,7.46185626 77.981381,6.48566579 L77.1288776,5.74757055 L76.4468749,6.48566579 C75.5700143,7.43804674 75.2290129,9.03328483 75.2290129,12.0570944 C75.2290129,16.6523325 76.154588,22.3428086 77.4455217,25.6047134 C77.8595948,26.676142 78.0544527,27.4618563 77.9083093,27.6047134 C77.4942362,28.0094753 75.4725853,27.223761 72.9637896,25.6285229 C70.0165637,23.723761 67.9949128,22.1047134 65.4374026,19.5809039 C64.04904,18.1999515 63.537538,17.8428086 63.537538,18.176142 C63.537538,19.1285229 64.8041144,22.9380467 65.7296895,24.8189991 C66.2655488,25.8666182 66.7039791,26.8189991 66.7039791,26.9142372 C66.7039791,27.2713801 64.8771861,27.7475705 63.3913945,27.7475705 C61.3210292,27.7475705 60.3467396,27.2951896 59.3968072,25.8428086 C58.0328018,23.7713801 56.2547233,17.9856658 55.4752917,13.176142 L55.1830048,11.3189991 L54.3061442,11.176142 C52.2114216,10.7951896 49.605197,8.81899912 48.8257653,7.03328483 C48.6309074,6.58090388 48.2168343,5.96185626 47.9001902,5.67614198 C47.3886882,5.22376102 47.2181875,5.17614198 46.2926124,5.39042769 C44.7581063,5.72376102 43.5889588,6.39042769 42.4441685,7.55709436 C41.469879,8.53328483 40.6417328,9.81899912 40.6417328,10.3428086 C40.6417328,10.4618563 41.2506638,10.9142372 42.0057382,11.3189991 C44.0761036,12.4856658 47.072044,14.7475705 48.8257653,16.4380467 C51.4563472,19.0332848 52.8447098,21.5570944 52.869067,23.9380467 C52.8934243,25.7475705 52.4793512,26.8666182 51.4319899,27.7713801 C50.5551293,28.5094753 50.5064148,28.5094753 48.5578357,28.4142372 C46.8771861,28.3189991 46.2926124,28.176142 44.5145339,27.3428086 C39.0828695,24.7713801 34.454994,18.2475705 33.5537761,11.8904277 C32.8961306,7.2951896 35.1126394,2.81899912 38.8636543,1.15233245 C40.6173756,0.366618168 43.2723147,0.31899912 45.2939656,1.05709436 C48.2411915,2.15233245 51.8217058,4.91423722 53.8920711,7.72376102 L54.6471455,8.74757055 L54.7689317,6.12852293 C54.8907179,3.74757055 54.9394324,3.43804674 55.4752917,2.89042769 C56.7418681,1.55709436 60.0300955,0.533284834 61.6620305,0.938046739 L62.2466043,1.08090388 L62.222247,5.17614198 C62.1978898,9.2951896 62.1978898,9.2951896 62.9773214,11.0094753 C64.04904,13.4380467 65.5104744,15.7951896 67.1667666,17.7951896 C68.8961306,19.8904277 70.8447098,21.7713801 70.8447098,21.3428086 C70.8447098,21.1523325 70.6254947,20.2951896 70.3819223,19.4380467 C69.1884175,15.5094753 68.8230589,13.0094753 68.7987017,8.81899912 C68.7743445,5.03328483 68.8230589,4.67614198 69.3589182,3.50947531 C70.7959953,0.390427691 73.7432213,0.366618168 78.3710968,3.43804674 C79.1261712,3.93804674 80.2953187,4.84280864 80.9773214,5.46185626 C81.6836814,6.05709436 82.3169696,6.55709436 82.3900413,6.55709436 C82.4631131,6.55709436 82.5361848,5.96185626 82.5361848,5.24757055 C82.5361848,4.43804674 82.6823282,3.6999515 82.9259006,3.34280864 C83.7296895,2.15233245 87.237132,0.223761025 88.0652781,0.533284834 C88.2844933,0.604713406 88.3819223,1.12852293 88.3819223,2.10471341 C88.3819223,2.91423722 88.5037085,4.7951896 88.6498519,6.2951896 C88.869067,8.74757055 88.9908532,9.27138007 89.8433566,10.9618563 C91.1830048,13.6523325 93.4482281,17.2951896 95.1775921,19.6047134 C96.7364554,21.6523325 99.0260359,24.1047134 99.1965366,23.9142372 C99.2696083,23.8666182 98.831178,22.3666182 98.222247,20.6285229 C95.6160224,13.0094753 95.0314486,6.10471341 96.7364554,3.10471341 C97.4915298,1.74757055 99.0503932,1.00947531 100.682328,1.1999515 C102.289906,1.39042769 104.896131,2.60471341 106.942139,4.12852293 L108.574074,5.34280864 L109.377863,3.89042769 C110.644439,1.58090388 112.349446,0.604713406 115.126171,0.604713406 C118.146469,0.604713406 120.947551,1.74757055 123.285846,3.91423722 C126.086929,6.48566579 128.206009,10.4618563 128.985441,14.5332848 C129.204656,15.5809039 129.448228,16.6047134 129.5213,16.7951896 C129.618729,16.9856658 129.716158,17.6523325 129.764872,18.2951896 C129.813587,19.2475705 129.716158,19.5094753 129.131584,20.0332848 C128.766225,20.3666182 128.084223,20.7951896 127.645792,20.9856658 L126.817646,21.3428086 L127.694507,22.2713801 C128.181652,22.7951896 128.571367,23.4618563 128.571367,23.7713801 C128.571367,24.5570944 126.793289,26.4142372 125.477998,27.0332848 C123.748634,27.8189991 121.385982,27.6047134 118.877186,26.4380467 C114.371097,24.3666182 110.011151,18.1285229 108.744574,11.9856658 C108.525359,10.9856658 108.354859,9.67614198 108.354859,9.10471341 C108.354859,8.05709436 108.354859,8.05709436 106.625495,7.05709436 C104.969202,6.08090388 104.871773,6.05709436 104.433343,6.46185626 C104.165413,6.6999515 103.605197,7.55709436 103.191124,8.39042769 C102.557836,9.65233245 102.411692,10.2475705 102.314263,12.1047134 C102.16812,15.0094753 102.60655,17.1523325 104.579487,23.3666182 C106.381922,28.9380467 106.381922,29.0094753 104.384629,28.7713801 C100.7554,28.3189991 96.4198113,25.1999515 92.2060089,20.0332848 C91.0855758,18.6523325 90.4279304,18.0332848 90.3792159,18.2713801 C90.1356435,19.4618563 93.1559412,31.9142372 95.37245,38.8189991 C97.2479574,44.723761 97.2479574,44.723761 97.0530995,45.4380467 C96.8095271,46.4142372 95.3237355,47.8904277 93.9110156,48.5570944 C91.8893647,49.5094753 91.4265772,49.5570944 90.7445745,48.8428086 Z M45.2208938,23.5570944 C46.04904,22.9856658 46.4874703,21.9380467 46.4874703,20.4856658 C46.4874703,18.8428086 45.8541821,17.4380467 44.4658194,16.1523325 C43.199243,14.9380467 40.9340197,13.4618563 40.3250887,13.4618563 C39.9353729,13.4618563 39.9110156,13.6047134 40.0571591,14.723761 C40.4712321,17.8904277 41.5916652,20.9380467 43.0774568,22.9618563 C43.8568884,24.0094753 44.3683905,24.1523325 45.2208938,23.5570944 Z M119.754047,22.4142372 C120.119405,22.223761 120.898837,21.5809039 121.507768,20.9856658 C122.749987,19.723761 123.407633,19.6047134 124.966496,20.3904277 L125.965143,20.8904277 L125.818999,18.7713801 C125.55107,14.7475705 123.846063,10.5094753 121.191124,7.34280864 C119.510474,5.2951896 118.682328,5.15233245 117.001679,6.58090388 C116.027389,7.41423722 115.296672,9.15233245 115.0531,11.223761 C114.663384,14.6523325 116.19789,20.0332848 118.170826,22.223761 C118.7554,22.8428086 118.877186,22.8666182 119.754047,22.4142372 Z" id="Shape-Copy-3" transform="translate(81.607317, 24.915670) scale(-1, 1) rotate(-180.000000) translate(-81.607317, -24.915670) "></path>
                        <path d="M145.938079,49.0226474 C145.353505,48.7607427 144.574074,48.1655046 144.184358,47.7369331 C143.760838,47.4035998 143.059379,46.3801271 143.240685,46.6634664 C143.42199,46.9468057 142.519243,45.5624627 142.273748,45.1166765 C142.028253,44.6708903 141.69992,43.9750284 141.139703,42.7845522 C140.555129,41.5702665 139.897484,40.0226474 139.653911,39.3559808 C139.385982,38.6655046 138.60655,36.4512188 138.070691,34.9274093 C137.559189,33.4035998 136.682328,30.3559808 136.122112,28.1655046 C135.561895,25.9750284 134.660677,22.0226474 134.392748,20.594076 C133.710745,16.8321712 133.515887,10.2845522 134.003032,7.4988379 C134.465819,4.95121885 135.440109,2.97502837 136.609256,2.18931409 C138.533478,0.903599801 142.381922,2.14169504 146.473938,5.35598075 L148.39816,6.87979028 L149.10452,5.66550456 C150.030095,4.07026647 151.735102,2.45121885 153.123465,1.83217123 C154.024683,1.4035998 154.706685,1.30836171 156.460407,1.30836171 C159.017917,1.33217123 160.528066,1.80836171 162.939432,3.37979028 C165.95973,5.35598075 169.832531,9.83217123 169.686388,11.1893141 C169.613316,11.7369331 169.515887,11.7845522 168.590312,11.7369331 C168.030095,11.7131236 167.226307,11.5226474 166.812233,11.3083617 C165.618729,10.7131236 163.913722,9.07026647 163.353505,7.97502837 C162.69586,6.68931409 161.965143,5.95121885 161.331855,5.95121885 C160.235779,5.95121885 158.482058,6.76074266 157.31291,7.78455218 C155.973262,8.95121885 154.682328,10.8797903 155.02333,11.1655046 C155.145116,11.2607427 156.509121,12.141695 158.043627,13.141695 C165.180298,17.7369331 168.639026,23.1893141 166.836591,27.0226474 C166.349446,28.0702665 165.837944,28.5702665 164.741868,29.0702665 C164.132937,29.3559808 163.743221,29.3797903 162.42793,29.1178855 C160.13835,28.7131236 158.944845,28.2369331 157.093695,27.0464569 C154.195183,25.1655046 151.247957,21.7131236 149.786523,18.4988379 C148.617376,15.9750284 148.22766,14.1655046 148.081516,13.5702665 C147.935373,12.9750284 147.813587,11.6655046 147.813587,10.6655046 L147.813587,8.85598075 L147.034155,8.59407599 C146.595725,8.45121885 145.645792,7.9035998 144.939432,7.37979028 C143.429284,6.26074266 142.893424,6.18931409 141.967849,7.09407599 C141.115346,7.92740932 140.555129,9.68931409 140.262842,12.4988379 C139.824412,16.5702665 139.848769,16.7131236 141.480704,19.1893141 C145.158648,24.7131236 147.95973,30.7369331 149.299378,35.8559808 C150.127524,39.094076 150.590312,43.3083617 150.34674,45.4750284 C150.249311,46.3321712 150.151882,47.1893141 150.127524,47.4035998 C150.127524,47.6178855 149.859595,48.1655046 149.567308,48.641695 C149.10452,49.4274093 148.958377,49.5226474 148.008445,49.5226474 C147.423871,49.5226474 146.498296,49.3083617 145.938079,49.0226474 Z M146.595725,41.6893141 C146.595725,37.0464569 145.207362,31.9988379 142.040921,25.0702665 C140.969202,22.7131236 140.311557,21.9035998 140.603844,23.2845522 C140.676915,23.641695 140.920488,24.9512188 141.115346,26.1893141 C141.651205,29.2845522 143.01521,34.6893141 143.916428,37.2607427 C145.036861,40.4750284 146.206009,43.3321712 146.425224,43.3321712 C146.522653,43.3321712 146.595725,42.594076 146.595725,41.6893141 Z M159.821706,24.0226474 C160.187064,23.7607427 160.57678,23.1178855 160.747281,22.5464569 C161.502355,19.8083617 159.846063,17.0226474 156.241192,14.9035998 C155.437403,14.4274093 154.706685,14.0464569 154.584899,14.0464569 C153.951611,14.0464569 155.047687,19.4274093 156.095048,21.4512188 C157.653911,24.4512188 158.506415,25.0464569 159.821706,24.0226474 Z" id="Shape-Copy-4" transform="translate(151.711415, 25.415505) scale(-1, 1) rotate(-180.000000) translate(-151.711415, -25.415505) "></path>
                    </g>
                    <g id="Group-3-Copy-4" transform="translate(173.423545, 38.689314)">
                        <path d="M3.76308748,10.850212 C3.58669723,10.3954375 2.47795851,7.54046408 1.77239752,6.47932351 C0.714056018,4.83708216 0.249334476,4.28124662 0.148540047,3.11904505 C0.0225470121,1.45153845 0.802539151,0.395388571 2.25117105,0.0872148607 C2.96375713,-0.0643766488 3.81299363,-0.0643766488 4.84613652,0.466193634 C6.35805294,1.22415118 6.69656149,2.4925496 6.3358813,4.32963104 C6.14855641,5.283748 5.18529272,6.41443305 4.37893729,8.05667441 C3.54738326,9.77471151 4.26705962,12.0629441 3.76308748,10.850212 Z" id="Path-Copy-12" fill="url(#linearGradient-1)" fill-rule="nonzero" transform="translate(3.301759, 5.595238) scale(-1, 1) rotate(-180.000000) translate(-3.301759, -5.595238) "></path>
                        <path d="M5.00883145,8.39352239 C4.86455682,8.9258836 4.45498438,9.60572581 3.78011413,10.433049 L3.93653409,10.5606451 C3.99615968,10.4875501 4.06827074,10.4256036 4.14952034,10.3776809 C5.20820693,9.75324457 5.80564189,9.18977396 5.94182521,8.68726902 C6.18218299,7.80036912 5.24928918,7.5062537 5.00883145,8.39352239 Z" id="Path-5" fill="#FFFFFF"></path>
                    </g>
                </g>
            </g>
        </g>
    </g>
</svg>