<?xml version="1.0" encoding="UTF-8"?>
<svg width="150px" height="150px" viewBox="0 0 150 150" version="1.1" xmlns="http://www.w3.org/2000/svg" xmlns:xlink="http://www.w3.org/1999/xlink">
    <!-- Generator: sketchtool 63.1 (101010) - https://sketch.com -->
    <title>472A9FD3-18E0-456C-8065-4D6ED6E862BE@4.00x</title>
    <desc>Created with sketchtool.</desc>
    <defs>
        <path d="M41.6666667,91.6666667 C41.6666667,64.0916667 64.0916667,41.6666667 91.6666667,41.6666667 C119.241667,41.6666667 141.666667,64.0916667 141.666667,91.6666667 C141.666667,119.241667 119.241667,141.666667 91.6666667,141.666667 C64.0916667,141.666667 41.6666667,119.241667 41.6666667,91.6666667 M172.558333,160.775 L144.266667,132.475 C153.041667,121.191667 158.333333,107.05 158.333333,91.6666667 C158.333333,54.9083333 128.425,25 91.6666667,25 C54.9083333,25 25,54.9083333 25,91.6666667 C25,128.425 54.9083333,158.333333 91.6666667,158.333333 C107.05,158.333333 121.191667,153.041667 132.475,144.266667 L160.775,172.558333 C162.4,174.183333 164.533333,175 166.666667,175 C168.8,175 170.933333,174.183333 172.558333,172.558333 C175.816667,169.3 175.816667,164.033333 172.558333,160.775" id="path-1"></path>
    </defs>
    <g id="Search" stroke="none" stroke-width="1" fill="none" fill-rule="evenodd">
        <g transform="translate(-111.000000, -201.000000)" id="Icon/Description">
            <g transform="translate(20.000000, 176.000000)">
                <g id="27)-Icon/search" transform="translate(66.000000, 0.000000)">
                    <mask id="mask-2" fill="white">
                        <use xlink:href="#path-1"></use>
                    </mask>
                    <use id="🎨-Icon-Сolor" fill="#3366FF" fill-rule="evenodd" opacity="0.800000012" xlink:href="#path-1"></use>
                </g>
            </g>
        </g>
    </g>
</svg>
