<?xml version="1.0" encoding="UTF-8"?>
<svg width="38px" height="38px" viewBox="0 0 38 38" version="1.1" xmlns="http://www.w3.org/2000/svg" xmlns:xlink="http://www.w3.org/1999/xlink">
    <!-- Generator: Sketch 63.1 (92452) - https://sketch.com -->
    <title>27) Icon/thumbs-down</title>
    <desc>Created with Sketch.</desc>
    <g id="Symbols" stroke="none" stroke-width="1" fill="none" fill-rule="evenodd">
        <g id="Ratings" transform="translate(-6.000000, -13.000000)" fill="#3366ff">
            <g id="27)-Icon/thumbs-down">
                <g transform="translate(0.000000, 7.000000)">
                    <g id="thumbs-down" transform="translate(6.250000, 6.250000)">
                        <path d="M36.4273438,16.5021973 C36.7925,14.8434814 36.4948438,13.2401367 35.725,11.8886719 C35.9560938,10.1405273 35.4108594,8.33166504 34.3703125,6.98217773 C34.2957813,2.88742676 31.5716406,0 25.546875,0 C25,0 24.375,0.000732421875 23.8109375,0.000732421875 C15.7183594,0.000732421875 13.2028906,2.9296875 10,2.9296875 L9.15273438,2.9296875 C8.71210938,2.56530762 8.13382813,2.34375 7.5,2.34375 L2.5,2.34375 C1.11929688,2.34375 0,3.39309082 0,4.6875 L0,22.265625 C0,23.5600342 1.11929688,24.609375 2.5,24.609375 L7.5,24.609375 C8.42515625,24.609375 9.23242188,24.1378418 9.6646875,23.4375 L10.215625,23.4375 C11.7114063,24.6791748 13.8103906,27.8798584 15.5875,29.5458984 C16.6552344,30.5468994 16.3807031,37.5 21.19375,37.5 C25.6921875,37.5 28.6367188,35.1609375 28.6367188,29.8293457 C28.6367188,28.480957 28.3296875,27.3588867 27.9453125,26.4206543 L30.7953125,26.4206543 C34.5923437,26.4206543 37.5,23.3763428 37.5,20.1525879 C37.5,18.75 37.1125,17.5898437 36.4273438,16.5021973 Z M5,21.6796875 C3.96445312,21.6796875 3.125,20.8927002 3.125,19.921875 C3.125,18.9510498 3.96445312,18.1640625 5,18.1640625 C6.03554687,18.1640625 6.875,18.9510498 6.875,19.921875 C6.875,20.8927002 6.03554687,21.6796875 5,21.6796875 Z M30.7953125,22.9050293 L22.6710938,22.9050293 C22.6710938,25.6750488 24.8867188,26.9604492 24.8867188,29.8293457 C24.8867188,31.5688477 24.8867188,33.984375 21.19375,33.984375 C19.7164063,32.5993652 20.4546875,29.137207 18.2390625,27.0600586 C16.1640625,25.1140137 13.06875,19.921875 10.853125,19.921875 L10,19.921875 L10,6.28637695 C14.1883594,6.28637695 17.8125781,3.51635742 23.409375,3.51635742 L26.3640625,3.51635742 C29.1384375,3.51635742 31.115625,4.77026367 30.5140625,8.34301758 C31.7015625,8.94067383 32.584375,11.0119629 31.603125,12.5595703 C33.2891406,14.0525391 33.0639844,16.2996826 32.0101563,17.3657227 C32.7484375,17.3657227 33.7570312,18.7507324 33.7500366,20.1350098 C33.7429688,21.5200195 32.4445312,22.9050293 30.7953125,22.9050293 L30.7953125,22.9050293 Z" id="Shape"></path>
                    </g>
                </g>
            </g>
        </g>
    </g>
</svg>