<?xml version="1.0" encoding="UTF-8"?>
<svg width="38px" height="38px" viewBox="0 0 38 38" version="1.1" xmlns="http://www.w3.org/2000/svg" xmlns:xlink="http://www.w3.org/1999/xlink">
    <!-- Generator: Sketch 63.1 (92452) - https://sketch.com -->
    <title>27) Icon/thumbs-down</title>
    <desc>Created with Sketch.</desc>
    <g id="Symbols" stroke="none" stroke-width="1" fill="none" fill-rule="evenodd">
        <g id="Ratings" transform="translate(-259.000000, -13.000000)" fill="#3366ff">
            <g id="27)-Icon/thumbs-up">
                <g transform="translate(253.000000, 7.000000)">
                    <g id="thumbs-up" transform="translate(6.250000, 6.250000)">
                        <path d="M36.4273437,20.9978027 C37.1125,19.9101562 37.5,18.75 37.5,17.3474121 C37.5,14.1236572 34.5923437,11.0793457 30.7953125,11.0793457 L27.9453125,11.0793457 C28.3296875,10.1411133 28.6367188,9.01904297 28.6367188,7.6706543 C28.6367188,2.3390625 25.6921875,0 21.19375,0 C16.3807031,0 16.6552344,6.95310059 15.5875,7.95410156 C13.8103906,9.6201416 11.7113281,12.8208252 10.215625,14.0625 L2.5,14.0625 C1.11929688,14.0625 0,15.1118408 0,16.40625 L0,33.984375 C0,35.2787842 1.11929687,36.328125 2.5,36.328125 L7.5,36.328125 C8.66351563,36.328125 9.64125,35.582959 9.92015625,34.5739746 C13.3974219,34.64729 15.7842188,37.4992676 23.8109375,37.4992676 C24.375,37.4992676 25,37.5 25.546875,37.5 C31.5716406,37.5 34.2957812,34.6125732 34.3703125,30.5178223 C35.4108594,29.168335 35.9561719,27.3594727 35.725,25.6113281 C36.4948437,24.2598633 36.7925,22.6565186 36.4273437,20.9978027 Z M31.603125,24.9404297 C32.584375,26.4880371 31.7015625,28.5593262 30.5140625,29.1569824 C31.115625,32.7297363 29.1384375,33.9836426 26.3640625,33.9836426 L23.409375,33.9836426 C17.8125781,33.9836426 14.1883594,31.213623 10,31.213623 L10,17.578125 L10.853125,17.578125 C13.06875,17.578125 16.1640625,12.3859863 18.2390625,10.4399414 C20.4546875,8.36279297 19.7164063,4.90063477 21.19375,3.515625 C24.8867188,3.515625 24.8867188,5.93115234 24.8867188,7.6706543 C24.8867188,10.5395508 22.6710937,11.8249512 22.6710937,14.5949707 L30.7953125,14.5949707 C32.4445312,14.5949707 33.7429688,15.9799805 33.7500366,17.3649902 C33.7570312,18.7492676 32.7484375,20.1342773 32.0101563,20.1342773 C33.0639844,21.2003174 33.2891406,23.4474609 31.603125,24.9404297 Z M6.875,31.640625 C6.875,32.6114502 6.03554687,33.3984375 5,33.3984375 C3.96445313,33.3984375 3.125,32.6114502 3.125,31.640625 C3.125,30.6697998 3.96445312,29.8828125 5,29.8828125 C6.03554687,29.8828125 6.875,30.6697998 6.875,31.640625 Z" id="Shape"></path>
                    </g>
                </g>
            </g>
        </g>
    </g>
</svg>